<svg xmlns:dc="http://purl.org/dc/elements/1.1/" xmlns:cc="http://creativecommons.org/ns#" xmlns:rdf="http://www.w3.org/1999/02/22-rdf-syntax-ns#" xmlns:svg="http://www.w3.org/2000/svg" xmlns="http://www.w3.org/2000/svg" xmlns:sodipodi="http://sodipodi.sourceforge.net/DTD/sodipodi-0.dtd" xmlns:inkscape="http://www.inkscape.org/namespaces/inkscape" width="4in" height="3in" viewBox="0 0 101.6 76.200002" version="1.1" id="svg1288" inkscape:version="1.0.1 (3bc2e813f5, 2020-09-07)" sodipodi:docname="position_angle.svg">
  <defs id="defs1282">
    <marker style="overflow:visible;" id="marker2611" refX="0.0" refY="0.0" orient="auto" inkscape:stockid="Arrow1Mend" inkscape:isstock="true">
      <path transform="scale(0.4) rotate(180) translate(10,0)" style="fill-rule:evenodd;stroke:#000000;stroke-width:1pt;stroke-opacity:1;fill:#000000;fill-opacity:1" d="M 0.0,0.0 L 5.0,-5.0 L -12.5,0.0 L 5.0,5.0 L 0.0,0.0 z " id="path2609"/>
    </marker>
    <marker style="overflow:visible;" id="Arrow1Mend" refX="0.0" refY="0.0" orient="auto" inkscape:stockid="Arrow1Mend" inkscape:isstock="true" inkscape:collect="always">
      <path transform="scale(0.4) rotate(180) translate(10,0)" style="fill-rule:evenodd;stroke:#000000;stroke-width:1pt;stroke-opacity:1;fill:#000000;fill-opacity:1" d="M 0.0,0.0 L 5.0,-5.0 L -12.5,0.0 L 5.0,5.0 L 0.0,0.0 z " id="path1864"/>
    </marker>
    <marker style="overflow:visible" id="Arrow1Mstart" refX="0.0" refY="0.0" orient="auto" inkscape:stockid="Arrow1Mstart" inkscape:isstock="true">
      <path transform="scale(0.4) translate(10,0)" style="fill-rule:evenodd;stroke:#000000;stroke-width:1pt;stroke-opacity:1;fill:#000000;fill-opacity:1" d="M 0.0,0.0 L 5.0,-5.0 L -12.5,0.0 L 5.0,5.0 L 0.0,0.0 z " id="path1861"/>
    </marker>
    <marker style="overflow:visible" id="Arrow1Mstart-7" refX="0" refY="0" orient="auto" inkscape:stockid="Arrow1Mstart" inkscape:isstock="true">
      <path transform="matrix(0.4,0,0,0.4,4,0)" style="fill:#000000;fill-opacity:1;fill-rule:evenodd;stroke:#000000;stroke-width:1pt;stroke-opacity:1" d="M 0,0 5,-5 -12.5,0 5,5 Z" id="path1861-6"/>
    </marker>
    <marker style="overflow:visible" id="Arrow1Mend-5" refX="0" refY="0" orient="auto" inkscape:stockid="Arrow1Mend" inkscape:isstock="true">
      <path transform="matrix(-0.4,0,0,-0.4,-4,0)" style="fill:#000000;fill-opacity:1;fill-rule:evenodd;stroke:#000000;stroke-width:1pt;stroke-opacity:1" d="M 0,0 5,-5 -12.5,0 5,5 Z" id="path1864-6"/>
    </marker>
    <marker style="overflow:visible" id="Arrow1Mstart-74" refX="0" refY="0" orient="auto" inkscape:stockid="Arrow1Mstart" inkscape:isstock="true">
      <path transform="matrix(0.4,0,0,0.4,4,0)" style="fill:#000000;fill-opacity:1;fill-rule:evenodd;stroke:#000000;stroke-width:1pt;stroke-opacity:1" d="M 0,0 5,-5 -12.5,0 5,5 Z" id="path1861-5"/>
    </marker>
    <marker style="overflow:visible" id="Arrow1Mend-2" refX="0" refY="0" orient="auto" inkscape:stockid="Arrow1Mend" inkscape:isstock="true">
      <path transform="matrix(-0.4,0,0,-0.4,-4,0)" style="fill:#000000;fill-opacity:1;fill-rule:evenodd;stroke:#000000;stroke-width:1pt;stroke-opacity:1" d="M 0,0 5,-5 -12.5,0 5,5 Z" id="path1864-5"/>
    </marker>
    <marker style="overflow:visible" id="Arrow1Mstart-7-4" refX="0" refY="0" orient="auto" inkscape:stockid="Arrow1Mstart" inkscape:isstock="true">
      <path transform="matrix(0.4,0,0,0.4,4,0)" style="fill:#000000;fill-opacity:1;fill-rule:evenodd;stroke:#000000;stroke-width:1pt;stroke-opacity:1" d="M 0,0 5,-5 -12.5,0 5,5 Z" id="path1861-6-4"/>
    </marker>
    <marker style="overflow:visible" id="marker2611-3" refX="0" refY="0" orient="auto" inkscape:stockid="Arrow1Mend" inkscape:isstock="true">
      <path transform="matrix(-0.4,0,0,-0.4,-4,0)" style="fill:#000000;fill-opacity:1;fill-rule:evenodd;stroke:#000000;stroke-width:1pt;stroke-opacity:1" d="M 0,0 5,-5 -12.5,0 5,5 Z" id="path2609-0"/>
    </marker>
    <marker style="overflow:visible" id="Arrow1Mstart-7-8" refX="0" refY="0" orient="auto" inkscape:stockid="Arrow1Mstart" inkscape:isstock="true">
      <path transform="matrix(0.4,0,0,0.4,4,0)" style="fill:#000000;fill-opacity:1;fill-rule:evenodd;stroke:#000000;stroke-width:1pt;stroke-opacity:1" d="M 0,0 5,-5 -12.5,0 5,5 Z" id="path1861-6-6"/>
    </marker>
    <marker style="overflow:visible" id="marker2611-8" refX="0" refY="0" orient="auto" inkscape:stockid="Arrow1Mend" inkscape:isstock="true">
      <path transform="matrix(-0.4,0,0,-0.4,-4,0)" style="fill:#000000;fill-opacity:1;fill-rule:evenodd;stroke:#000000;stroke-width:1pt;stroke-opacity:1" d="M 0,0 5,-5 -12.5,0 5,5 Z" id="path2609-8"/>
    </marker>
    <marker style="overflow:visible" id="Arrow1Mstart-7-4-4" refX="0" refY="0" orient="auto" inkscape:stockid="Arrow1Mstart" inkscape:isstock="true">
      <path transform="matrix(0.4,0,0,0.4,4,0)" style="fill:#000000;fill-opacity:1;fill-rule:evenodd;stroke:#000000;stroke-width:1pt;stroke-opacity:1" d="M 0,0 5,-5 -12.5,0 5,5 Z" id="path1861-6-4-3"/>
    </marker>
    <marker style="overflow:visible" id="marker2611-3-1" refX="0" refY="0" orient="auto" inkscape:stockid="Arrow1Mend" inkscape:isstock="true">
      <path transform="matrix(-0.4,0,0,-0.4,-4,0)" style="fill:#000000;fill-opacity:1;fill-rule:evenodd;stroke:#000000;stroke-width:1pt;stroke-opacity:1" d="M 0,0 5,-5 -12.5,0 5,5 Z" id="path2609-0-4"/>
    </marker>
  </defs>
  <sodipodi:namedview id="base" pagecolor="#ffffff" bordercolor="#666666" borderopacity="1.0" inkscape:pageopacity="0.0" inkscape:pageshadow="2" inkscape:zoom="1.3258252" inkscape:cx="188.09286" inkscape:cy="97.046933" inkscape:document-units="mm" inkscape:current-layer="layer1" inkscape:document-rotation="0" showgrid="false" units="in" inkscape:window-width="1343" inkscape:window-height="846" inkscape:window-x="0" inkscape:window-y="38" inkscape:window-maximized="0"/>
  <metadata id="metadata1285">
    <rdf:RDF>
      <cc:Work rdf:about="">
        <dc:format>image/svg+xml</dc:format>
        <dc:type rdf:resource="http://purl.org/dc/dcmitype/StillImage"/>
        <dc:title/>
      </cc:Work>
    </rdf:RDF>
  </metadata>
  <g inkscape:label="Layer 1" inkscape:groupmode="layer" id="layer1">
    <rect style="fill:#ffffff;fill-opacity:1;stroke:#000000;stroke-width:0.477077;stroke-miterlimit:4;stroke-dasharray:none;stroke-opacity:1" id="rect1851" width="28.643866" height="20.155411" x="9.7402191" y="20.082235" ry="1.3087782"/>
    <path style="fill:none;stroke:#000000;stroke-width:0.477077;stroke-linecap:butt;stroke-linejoin:miter;stroke-miterlimit:4;stroke-dasharray:none;stroke-opacity:1;marker-start:url(#Arrow1Mstart);marker-end:url(#Arrow1Mend)" d="M 1.4405587,16.343036 V 54.854794 H 44.602212" id="path1853"/>
    <rect style="fill:#ffffff;fill-opacity:1;stroke:#000000;stroke-width:0.477078;stroke-miterlimit:4;stroke-dasharray:none;stroke-opacity:1" id="rect1851-4" width="28.643866" height="20.155411" x="17.867367" y="68.864899" ry="1.3087782" transform="rotate(-47.098485)"/>
    <path style="fill:none;stroke:#000000;stroke-width:0.477078;stroke-linecap:butt;stroke-linejoin:miter;stroke-miterlimit:4;stroke-dasharray:none;stroke-opacity:1;marker-start:url(#Arrow1Mstart-74);marker-end:url(#Arrow1Mend-2)" d="M 57.118376,16.343033 V 54.854792 H 100.28001" id="path1853-7"/>
    <path style="fill:#ffffff;fill-opacity:1;stroke:#000000;stroke-width:0.529167;stroke-miterlimit:4;stroke-dasharray:none;stroke-opacity:1" id="path2593" sodipodi:type="arc" sodipodi:cx="23.820122" sodipodi:cy="30.513292" sodipodi:rx="0.77875519" sodipodi:ry="0.77875519" sodipodi:start="0" sodipodi:end="6.2813004" sodipodi:open="true" sodipodi:arc-type="arc" d="m 24.598877,30.513292 a 0.77875519,0.77875519 0 0 1 -0.778388,0.778755 0.77875519,0.77875519 0 0 1 -0.779122,-0.778021 0.77875519,0.77875519 0 0 1 0.777654,-0.779488 0.77875519,0.77875519 0 0 1 0.779855,0.777286"/>
    <path style="fill:none;stroke:#000000;stroke-width:0.529167;stroke-linecap:butt;stroke-linejoin:miter;stroke-miterlimit:4;stroke-dasharray:none;stroke-opacity:1;marker-start:url(#Arrow1Mstart-7);marker-end:url(#marker2611)" d="M 23.822764,32.099325 V 53.900782" id="path2595" sodipodi:nodetypes="cc"/>
    <path style="fill:none;stroke:#000000;stroke-width:0.529167;stroke-linecap:butt;stroke-linejoin:miter;stroke-miterlimit:4;stroke-dasharray:none;stroke-opacity:1;marker-start:url(#Arrow1Mstart-7-4);marker-end:url(#marker2611-3)" d="M 22.054433,30.544989 H 2.448149" id="path2595-7" sodipodi:nodetypes="cc"/>
    <text xml:space="preserve" style="font-style:normal;font-weight:normal;font-size:10.5833px;line-height:1.25;font-family:sans-serif;fill:#000000;fill-opacity:1;stroke:none;stroke-width:0.264583" x="26.320551" y="48.12138" id="text2852"><tspan sodipodi:role="line" id="tspan2850" x="26.320551" y="48.12138" style="stroke-width:0.264583">y</tspan></text>
    <text xml:space="preserve" style="font-style:normal;font-weight:normal;font-size:10.5833px;line-height:1.25;font-family:sans-serif;fill:#000000;fill-opacity:1;stroke:none;stroke-width:0.264583" x="4.1608448" y="29.279934" id="text2856"><tspan sodipodi:role="line" id="tspan2854" x="4.1608448" y="29.279934" style="stroke-width:0.264583">x</tspan></text>
    <path style="fill:#ffffff;fill-opacity:1;stroke:#000000;stroke-width:0.529167;stroke-miterlimit:4;stroke-dasharray:none;stroke-opacity:1" id="path2593-9" sodipodi:type="arc" sodipodi:cx="79.650391" sodipodi:cy="30.558138" sodipodi:rx="0.77875519" sodipodi:ry="0.77875519" sodipodi:start="0" sodipodi:end="6.2813004" sodipodi:open="true" sodipodi:arc-type="arc" d="m 80.429146,30.558138 a 0.77875519,0.77875519 0 0 1 -0.778388,0.778755 0.77875519,0.77875519 0 0 1 -0.779122,-0.778021 0.77875519,0.77875519 0 0 1 0.777654,-0.779489 0.77875519,0.77875519 0 0 1 0.779854,0.777287"/>
    <path style="fill:none;stroke:#000000;stroke-width:0.529167;stroke-linecap:butt;stroke-linejoin:miter;stroke-miterlimit:4;stroke-dasharray:none;stroke-opacity:1;marker-start:url(#Arrow1Mstart-7-8);marker-end:url(#marker2611-8)" d="M 79.653039,32.14417 V 53.945628" id="path2595-2" sodipodi:nodetypes="cc"/>
    <path style="fill:none;stroke:#000000;stroke-width:0.529167;stroke-linecap:butt;stroke-linejoin:miter;stroke-miterlimit:4;stroke-dasharray:none;stroke-opacity:1;marker-start:url(#Arrow1Mstart-7-4-4);marker-end:url(#marker2611-3-1)" d="M 77.884708,30.589834 H 58.278424" id="path2595-7-0" sodipodi:nodetypes="cc"/>
    <text xml:space="preserve" style="font-style:normal;font-weight:normal;font-size:10.5833px;line-height:1.25;font-family:sans-serif;fill:#000000;fill-opacity:1;stroke:none;stroke-width:0.264583" x="82.150826" y="48.166229" id="text2852-6"><tspan sodipodi:role="line" id="tspan2850-8" x="82.150826" y="48.166229" style="stroke-width:0.264583">y</tspan></text>
    <text xml:space="preserve" style="font-style:normal;font-weight:normal;font-size:10.5833px;line-height:1.25;font-family:sans-serif;fill:#000000;fill-opacity:1;stroke:none;stroke-width:0.264583" x="59.991112" y="29.32478" id="text2856-9"><tspan sodipodi:role="line" id="tspan2854-2" x="59.991112" y="29.32478" style="stroke-width:0.264583">x</tspan></text>
    <text xml:space="preserve" style="font-style:normal;font-weight:normal;font-size:10.5833px;line-height:1.25;font-family:sans-serif;fill:#000000;fill-opacity:1;stroke:none;stroke-width:0.264583" x="47.692436" y="35.624062" id="text3215"><tspan sodipodi:role="line" id="tspan3213" x="47.692436" y="35.624062" style="stroke-width:0.264583">≠</tspan></text>
  </g>
</svg>