<?xml version="1.0" encoding="UTF-8" standalone="no"?>
<svg
   xmlns:dc="http://purl.org/dc/elements/1.1/"
   xmlns:cc="http://creativecommons.org/ns#"
   xmlns:rdf="http://www.w3.org/1999/02/22-rdf-syntax-ns#"
   xmlns:svg="http://www.w3.org/2000/svg"
   xmlns="http://www.w3.org/2000/svg"
   xmlns:sodipodi="http://sodipodi.sourceforge.net/DTD/sodipodi-0.dtd"
   xmlns:inkscape="http://www.inkscape.org/namespaces/inkscape"
   width="492"
   height="101"
   viewBox="0 0 130.175 26.722917"
   version="1.1"
   id="svg8"
   inkscape:version="1.0.1 (3bc2e813f5, 2020-09-07)"
   sodipodi:docname="dyn_logo.svg"
   inkscape:export-filename="/home/ryan/Documents/UConn/CE2120/dynamics_textbook/dynamics/dyn_logo.png"
   inkscape:export-xdpi="96"
   inkscape:export-ydpi="96">
  <defs
     id="defs2" />
  <sodipodi:namedview
     id="base"
     pagecolor="#ffffff"
     bordercolor="#666666"
     borderopacity="1.0"
     inkscape:pageopacity="0.0"
     inkscape:pageshadow="2"
     inkscape:zoom="1.4634146"
     inkscape:cx="367.10276"
     inkscape:cy="11.45355"
     inkscape:document-units="mm"
     inkscape:current-layer="layer1"
     inkscape:document-rotation="0"
     showgrid="false"
     units="px"
     inkscape:window-width="1343"
     inkscape:window-height="846"
     inkscape:window-x="528"
     inkscape:window-y="180"
     inkscape:window-maximized="0" />
  <metadata
     id="metadata5">
    <rdf:RDF>
      <cc:Work
         rdf:about="">
        <dc:format>image/svg+xml</dc:format>
        <dc:type
           rdf:resource="http://purl.org/dc/dcmitype/StillImage" />
        <dc:title></dc:title>
      </cc:Work>
    </rdf:RDF>
  </metadata>
  <g
     inkscape:label="Layer 1"
     inkscape:groupmode="layer"
     id="layer1">
    <rect
       style="fill:#ff0000;fill-opacity:1;stroke:#000000;stroke-width:0.632449;stroke-opacity:1"
       id="rect833-3-6-7"
       width="11.759845"
       height="2.0211887"
       x="-0.98251587"
       y="26.613224"
       ry="1.0105944"
       transform="matrix(0.92208835,-0.38697941,0.39195451,0.9199846,0,0)"
       inkscape:transform-center-x="-6.6982018"
       inkscape:transform-center-y="-2.7735018" />
    <rect
       style="fill:#ff0000;fill-opacity:1;stroke:#000000;stroke-width:0.79375;stroke-opacity:1"
       id="rect833"
       width="25.443695"
       height="1.7821923"
       x="-27.60227"
       y="5.0725794"
       ry="0.86086309"
       transform="rotate(-100.09865)" />
    <rect
       style="fill:#ff0000;fill-opacity:1;stroke:#000000;stroke-width:0.730133;stroke-opacity:1"
       id="rect833-3"
       width="21.529324"
       height="1.7821345"
       x="-21.900522"
       y="19.771765"
       ry="0.86083519"
       transform="matrix(0.01785806,-0.99984053,0.99991826,0.01278583,0,0)" />
    <rect
       style="fill:#ff0000;fill-opacity:1;stroke:#000000;stroke-width:0.632449;stroke-opacity:1"
       id="rect833-3-6"
       width="16.153852"
       height="1.7821324"
       x="5.348958"
       y="1.3904474"
       ry="0.86083418"
       transform="matrix(0.99940347,-0.03453566,0.03993352,0.99920234,0,0)"
       inkscape:transform-center-x="-7.2464941"
       inkscape:transform-center-y="-0.21573812" />
    <rect
       style="fill:#ffffff;fill-opacity:1;stroke:#000000;stroke-width:0.8313;stroke-opacity:1"
       id="rect833-3-6-5"
       width="26.271564"
       height="1.7407821"
       x="-3.4125562"
       y="33.196865"
       ry="0.87039107"
       transform="matrix(0.70606471,-0.70814732,0.71195085,0.70222929,0,0)"
       inkscape:transform-center-x="-6.7603517"
       inkscape:transform-center-y="-6.7157784" />
    <rect
       style="fill:#ffffff;fill-opacity:1;stroke:#000000;stroke-width:0.98949;stroke-opacity:1"
       id="rect833-3-6-5-3"
       width="16.171408"
       height="1.8774822"
       x="-37.344559"
       y="3.02473"
       ry="0.93855494"
       transform="matrix(-0.84795433,-0.5300693,0.52548127,-0.85080517,0,0)"
       inkscape:transform-center-x="9.5890185"
       inkscape:transform-center-y="-6.0581812" />
    <rect
       style="fill:#0000ff;fill-opacity:1;stroke:#000000;stroke-width:0.98949;stroke-opacity:1"
       id="rect833-3-6-5-3-5"
       width="16.551662"
       height="2.5422876"
       x="-25.127399"
       y="38.221626"
       ry="1.0790094"
       transform="matrix(-0.01526345,-0.99988351,0.99978647,-0.02066419,0,0)"
       inkscape:transform-center-x="-0.21037573"
       inkscape:transform-center-y="7.1444339" />
    <rect
       style="fill:#0000ff;fill-opacity:1;stroke:#000000;stroke-width:0.98949;stroke-opacity:1"
       id="rect833-3-6-5-3-5-6"
       width="20.404383"
       height="2.493221"
       x="-52.67675"
       y="21.997532"
       ry="1.0790094"
       transform="matrix(-0.67607969,-0.73682851,0.73316585,-0.68004987,0,0)"
       inkscape:transform-center-x="-4.9064589"
       inkscape:transform-center-y="5.197487" />
    <rect
       style="fill:#0000ff;fill-opacity:1;stroke:#000000;stroke-width:0.98949;stroke-opacity:1"
       id="rect833-3-6-5-3-5-6-2"
       width="17.60717"
       height="2.1246758"
       x="6.5656481"
       y="-52.859871"
       ry="0.99408239"
       transform="matrix(0.00874307,0.99996178,-0.99989996,0.01414434,0,0)"
       inkscape:transform-center-x="0.16378391"
       inkscape:transform-center-y="-7.1456551" />
    <rect
       style="fill:#ff0000;fill-opacity:1;stroke:#000000;stroke-width:0.98949;stroke-opacity:1"
       id="rect833-3-6-5-3-5-9"
       width="16.551662"
       height="2.5422873"
       x="-24.443731"
       y="59.410072"
       ry="1.0790094"
       transform="matrix(-0.01526345,-0.99988351,0.99978647,-0.02066419,0,0)"
       inkscape:transform-center-x="-0.21037555"
       inkscape:transform-center-y="7.1444334" />
    <rect
       style="fill:#ff0000;fill-opacity:1;stroke:#000000;stroke-width:0.98949;stroke-opacity:1"
       id="rect833-3-6-5-3-5-6-1"
       width="20.404383"
       height="2.493221"
       x="-66.253754"
       y="38.357136"
       ry="1.0790092"
       transform="matrix(-0.67607968,-0.73682852,0.73316585,-0.68004987,0,0)"
       inkscape:transform-center-x="-4.9064612"
       inkscape:transform-center-y="5.1974866" />
    <rect
       style="fill:#ff0000;fill-opacity:1;stroke:#000000;stroke-width:0.98949;stroke-opacity:1"
       id="rect833-3-6-5-3-5-6-2-2"
       width="17.60717"
       height="2.1246758"
       x="-67.380959"
       y="-19.190582"
       ry="0.99408239"
       transform="matrix(-0.99856583,0.05353761,-0.05893069,-0.99826208,0,0)"
       inkscape:transform-center-x="-7.1311352"
       inkscape:transform-center-y="-0.48378081" />
    <rect
       style="fill:#ffffff;fill-opacity:1;stroke:#000000;stroke-width:0.98949;stroke-opacity:1"
       id="rect833-3-6-5-3-5-7"
       width="16.551662"
       height="2.5422873"
       x="-23.363312"
       y="71.442162"
       ry="1.0790094"
       transform="matrix(-0.01526345,-0.99988351,0.99978647,-0.02066419,0,0)"
       inkscape:transform-center-x="-0.21037796"
       inkscape:transform-center-y="7.1444317" />
    <rect
       style="fill:#ffffff;fill-opacity:1;stroke:#000000;stroke-width:0.98949;stroke-opacity:1"
       id="rect833-3-6-5-3-5-6-0"
       width="14.016761"
       height="2.0123234"
       x="-53.713272"
       y="59.863155"
       ry="0.87036848"
       transform="matrix(-0.47835663,-0.87816566,0.87556895,-0.48309317,0,0)"
       inkscape:transform-center-x="2.7923043"
       inkscape:transform-center-y="-4.853687" />
    <rect
       style="fill:#ffffff;fill-opacity:1;stroke:#000000;stroke-width:0.98949;stroke-opacity:1"
       id="rect833-3-6-5-3-5-6-2-9"
       width="17.60717"
       height="2.1246758"
       x="6.3128757"
       y="-84.782349"
       ry="0.99408239"
       transform="matrix(0.00874307,0.99996178,-0.99989996,0.01414434,0,0)"
       inkscape:transform-center-x="0.16378719"
       inkscape:transform-center-y="-7.1456547" />
    <rect
       style="fill:#ffffff;fill-opacity:1;stroke:#000000;stroke-width:0.98949;stroke-opacity:1"
       id="rect833-3-6-5-3-5-6-0-3"
       width="14.140761"
       height="2.0058496"
       x="16.530518"
       y="-79.421066"
       ry="0.96275693"
       transform="matrix(0.41144902,-0.91143278,-0.90919699,-0.41636622,0,0)"
       inkscape:transform-center-x="3.03288"
       inkscape:transform-center-y="6.4721604" />
    <rect
       style="fill:#0000ff;fill-opacity:1;stroke:#000000;stroke-width:0.98949;stroke-opacity:1"
       id="rect833-3-6-5-3-5-6-2-2-0"
       width="17.60717"
       height="2.1246758"
       x="-96.269928"
       y="-34.480106"
       ry="0.99408239"
       transform="matrix(-0.98978923,0.14253873,-0.14788311,-0.98900485,0,0)"
       inkscape:transform-center-x="-7.0594005"
       inkscape:transform-center-y="-1.1189643" />
    <rect
       style="fill:#0000ff;fill-opacity:1;stroke:#000000;stroke-width:0.98949;stroke-opacity:1"
       id="rect833-3-6-5-3-5-6-2-2-0-6"
       width="17.60717"
       height="2.1246758"
       x="-100.14412"
       y="6.2854152"
       ry="0.99408239"
       transform="matrix(-0.9885959,-0.15059267,0.14525047,-0.98939492,0,0)"
       inkscape:transform-center-x="-7.0805638"
       inkscape:transform-center-y="0.97610909" />
    <rect
       style="fill:#0000ff;fill-opacity:1;stroke:#000000;stroke-width:0.98949;stroke-opacity:1"
       id="rect833-3-6-5-3-5-6-2-6"
       width="15.881123"
       height="2.1483085"
       x="6.860599"
       y="-93.216881"
       ry="0.84770894"
       transform="matrix(0.00874307,0.99996178,-0.99989996,0.01414434,0,0)"
       inkscape:transform-center-x="0.16377744"
       inkscape:transform-center-y="-7.1456552" />
    <rect
       style="fill:#ff0000;fill-opacity:1;stroke:#000000;stroke-width:0.98949;stroke-opacity:1"
       id="rect833-3-6-5-3-5-6-2-6-2"
       width="14.962923"
       height="2.235682"
       x="-110.3875"
       y="-24.802416"
       ry="0.99408239"
       transform="matrix(-0.98645188,0.16405085,-0.16937688,-0.98555135,0,0)"
       inkscape:transform-center-x="-7.0333778"
       inkscape:transform-center-y="-1.2723653" />
    <path
       sodipodi:type="star"
       style="fill:#ffffff;fill-opacity:1;stroke:#000000;stroke-width:0.302364;stroke-opacity:1"
       id="path1067-8"
       sodipodi:sides="20"
       sodipodi:cx="118.35545"
       sodipodi:cy="18.060389"
       sodipodi:r1="6.8009243"
       sodipodi:r2="6.0542569"
       sodipodi:arg1="1.2626918"
       sodipodi:arg2="1.5951096"
       inkscape:flatsided="false"
       inkscape:rounded="0"
       inkscape:randomized="0"
       d="m 120.41785,24.541058 -2.20958,-0.428202 0.10601,0.748332 -1.96912,-1.090043 -0.13043,0.744464 -1.5359,-1.645184 -0.3541,0.667722 -0.95234,-2.039282 -0.5431,0.52562 -0.27556,-2.233762 -0.67895,0.332066 0.42821,-2.209585 -0.74834,0.106007 1.09005,-1.969118 -0.74447,-0.130429 1.64519,-1.535901 -0.66773,-0.354098 2.03929,-0.952338 -0.52562,-0.543104 2.23376,-0.275556 -0.33207,-0.678948 2.20959,0.428202 -0.10601,-0.748332 1.96912,1.090043 0.13043,-0.744464 1.5359,1.645184 0.3541,-0.667722 0.95234,2.039282 0.5431,-0.52562 0.27555,2.233762 0.67895,-0.332066 -0.4282,2.209585 0.74833,-0.106007 -1.09004,1.969118 0.74446,0.130429 -1.64518,1.535901 0.66772,0.354098 -2.03928,0.952338 0.52562,0.543105 -2.23376,0.275555 z"
       inkscape:transform-center-x="-0.02226765"
       inkscape:transform-center-y="-0.71439384" />
    <rect
       style="fill:#ff0000;fill-opacity:1;stroke:#000000;stroke-width:0.98949;stroke-opacity:1"
       id="rect833-3-6-5-3-5-6-2-6-2-6"
       width="17.48657"
       height="2.0379522"
       x="-117.48396"
       y="2.1012027"
       ry="0.99408239"
       transform="matrix(-0.98645188,-0.16405085,-0.16937688,0.98555135,0,0)"
       inkscape:transform-center-x="-7.0333731"
       inkscape:transform-center-y="1.2723652" />
    <rect
       style="fill:#ff0000;fill-opacity:1;stroke:#000000;stroke-width:0.98949;stroke-opacity:1"
       id="rect833-3-6-5-3-5-6-2-6-2-1"
       width="14.41309"
       height="2.2148333"
       x="6.918375"
       y="-100.2501"
       ry="0.99408239"
       transform="matrix(-2.2734371e-4,0.99999997,-0.99998661,0.00517426,0,0)"
       inkscape:transform-center-x="0.099675169"
       inkscape:transform-center-y="-7.1468407" />
    <path
       sodipodi:type="star"
       style="fill:#ffffff;fill-opacity:1;stroke:#000000;stroke-width:0.229416;stroke-opacity:1"
       id="path1067"
       sodipodi:sides="20"
       sodipodi:cx="102.93042"
       sodipodi:cy="7.4151182"
       sodipodi:r1="5.7757087"
       sodipodi:r2="4.3496237"
       sodipodi:arg1="1.2181921"
       sodipodi:arg2="1.5875977"
       inkscape:flatsided="false"
       inkscape:rounded="0"
       inkscape:randomized="0"
       d="m 104.92502,12.835485 -2.06768,-1.071357 0.29507,1.422431 -1.63541,-1.657868 -0.15893,1.443993 -1.04305,-2.082096 -0.597372,1.324208 L 99.369044,9.9122821 98.39171,10.987082 98.771684,8.6895365 97.510053,9.4097187 98.58141,7.342042 97.158979,7.6371104 98.816848,6.0017007 97.372854,5.842772 99.45495,4.7997145 98.130742,4.2023458 100.43326,3.8537423 99.358457,2.8764082 101.656,3.2563823 l -0.72018,-1.2616312 2.06768,1.0713573 -0.29507,-1.4224311 1.63541,1.6578686 0.15893,-1.4439935 1.04305,2.0820961 0.59737,-1.3242078 0.34861,2.3025136 0.97733,-1.0747994 -0.37997,2.297545 1.26163,-0.7201821 -1.07136,2.0676766 1.42243,-0.2950684 -1.65787,1.6354098 1.444,0.1589286 -2.0821,1.0430576 1.32421,0.597369 -2.30252,0.348603 1.0748,0.977334 -2.29754,-0.379974 z"
       inkscape:transform-center-x="-0.037083184"
       inkscape:transform-center-y="-0.55652703"
       transform="matrix(1.0278591,0.03637568,-0.03637568,1.0278591,12.782168,-5.0499443)" />
    <path
       style="fill:#ffffff;fill-opacity:1;stroke:#000000;stroke-width:0.944795;stroke-opacity:1"
       id="path1090"
       d="m 122.45047,5.4826916 c -0.002,-0.1579442 -0.0236,-0.3164344 -0.0452,-0.4729447 -0.03,-0.2511718 -0.16463,-0.4566221 -0.29467,-0.6659848 -0.14692,-0.2716411 -0.38438,-0.4645711 -0.61995,-0.6555106 -0.29754,-0.2772232 -0.6631,-0.4386432 -1.04017,-0.575252 -0.43521,-0.1395919 -0.89457,-0.1986866 -1.35084,-0.1604728 -0.10082,0.00844 -0.20073,0.02539 -0.3011,0.038083 -0.41715,0.073624 -0.8218,0.205321 -1.1979,0.4009719 -0.26937,0.1401351 -0.584,0.3553716 -0.822,0.5081045 -0.3053,0.2465707 -0.55337,0.5541706 -0.72065,0.9098998 -0.095,0.2018418 -0.1157,0.2984606 -0.17942,0.510076 -0.0957,0.4362076 -0.14005,0.8904155 -0.0664,1.3339043 0.0134,0.081326 0.035,0.1611265 0.0525,0.2416898 0.12318,0.4754918 0.35053,0.9114028 0.59013,1.3366869 0.2082,0.3735079 0.46117,0.7190046 0.71368,1.0631967 0.2176,0.3021153 0.4588,0.5836564 0.71436,0.8538534 0.20932,0.228518 0.43665,0.439039 0.66331,0.649945 0.11224,0.102758 0.22321,0.206976 0.33605,0.309069 0.0168,-1.98e-4 0.0319,0.04396 0.048,0.04452 0.0125,4.41e-4 0.0249,-0.0043 0.0365,-0.0089 0.0677,-0.02657 0.13418,-0.05628 0.20127,-0.08441 0,0 0.014,-0.008 0.014,-0.008 v 0 c 0.0695,-0.05292 0.18998,-0.0893 0.19362,-0.176571 6.3e-4,-0.01433 -0.0557,-0.02686 -0.0582,-0.04014 -0.1274,-0.08991 -0.25274,-0.182619 -0.37135,-0.284163 -0.23877,-0.199589 -0.47556,-0.401663 -0.68698,-0.6308811 -0.25859,-0.2660935 -0.5052,-0.5434698 -0.73331,-0.836371 -0.25835,-0.3385037 -0.51787,-0.6777121 -0.73261,-1.0463266 -0.24202,-0.4189943 -0.46993,-0.8502046 -0.59555,-1.320485 -0.018,-0.078916 -0.0399,-0.1570349 -0.0539,-0.2367498 -0.0768,-0.4374846 -0.0345,-0.885704 0.064,-1.3157992 0.0245,-0.083407 0.0447,-0.1682027 0.0736,-0.2502209 0.15993,-0.4548405 0.4462,-0.8436926 0.82339,-1.1426133 -0.15053,-0.00944 -0.0894,0.00363 0.22297,-0.1619152 0.27808,-0.1473552 0.57373,-0.2600783 0.87864,-0.3377958 0.0999,-0.02544 0.20149,-0.042913 0.30224,-0.06437 0.24416,-0.030583 0.33377,-0.049503 0.57828,-0.050316 0.35544,-0.0012 0.70775,0.059491 1.04467,0.1714292 0.37233,0.1387407 0.7337,0.304616 1.0444,0.5573698 0.23022,0.1918348 0.46375,0.3834143 0.63183,0.6353942 0.13359,0.1964616 0.27003,0.3988652 0.3275,0.632593 0.0323,0.1481976 0.0494,0.299748 0.093,0.4452033 0,0 0.22223,-0.1158155 0.22223,-0.1158155 z" />
    <path
       style="fill:#ffffff;fill-opacity:1;stroke:#000000;stroke-width:0.944795;stroke-opacity:1"
       id="path1092"
       d="m 118.31883,12.068739 c 0.12602,0.07349 0.22699,0.180628 0.34013,0.271293 0.17271,0.139852 0.34197,0.283903 0.51196,0.427034 0.25053,0.199239 0.47322,0.427684 0.67145,0.678316 0.30181,0.427625 0.57244,0.875031 0.81483,1.338607 0.32997,0.642132 0.5428,1.331308 0.72295,2.027559 0.19406,0.801347 0.2736,1.6231 0.29896,2.445358 9.4e-4,0.528593 -0.0265,1.060195 -0.13725,1.578525 -0.0705,0.329923 -0.10689,0.411194 -0.212,0.728343 -0.21171,0.5499 -0.5387,1.057729 -0.97842,1.454185 -0.0811,0.07307 -0.17069,0.136016 -0.25605,0.204023 -0.091,0.05219 -0.16987,0.138285 -0.27325,0.156576 -0.0669,0.0119 0.2116,-0.101341 0.15267,-0.135236 -0.0815,-0.04691 -0.18173,0.05053 -0.27469,0.06506 -0.095,0.01487 -0.19145,0.02194 -0.28761,0.0229 -0.2466,0.0025 -0.36995,-0.02866 -0.61496,-0.0683 -0.6615,-0.141271 -1.28422,-0.412329 -1.89102,-0.704331 -0.44428,-0.243935 -0.87268,-0.545701 -1.1871,-0.949407 -0.066,-0.08471 -0.12203,-0.176705 -0.18305,-0.265057 -0.28335,-0.475734 -0.45569,-1.00597 -0.54368,-1.551166 -0.0187,-0.116005 -0.0298,-0.233117 -0.0447,-0.349677 -0.0519,-0.510843 -0.007,-1.026695 0.15523,-1.515179 0.024,-0.07239 0.0553,-0.142146 0.0829,-0.213218 0.0694,-0.158622 0.16025,-0.304378 0.30167,-0.408479 0.0392,-0.02882 0.16557,-0.101722 0.12555,-0.07414 -0.30673,0.211315 -0.42773,0.230152 -0.14983,0.150891 0.29276,-0.035 0.55675,-0.151386 0.82262,-0.27133 0,0 0.0129,-0.0098 0.0129,-0.0098 v 0 c -0.0161,-0.01525 -0.0284,-0.03568 -0.0481,-0.04575 -0.11867,-0.06064 -0.26235,0.0087 -0.3833,0.01712 -0.3515,0.08512 -0.15968,0.02533 -0.73016,0.344008 -0.19815,0.110685 -0.31621,0.298717 -0.39689,0.505176 -0.0245,0.07124 -0.0524,0.141402 -0.0734,0.213732 -0.14347,0.493294 -0.17449,1.010307 -0.12459,1.520069 0.0344,0.27098 0.049,0.433806 0.10715,0.70099 0.0939,0.431582 0.25171,0.846849 0.47769,1.226704 0.06,0.0911 0.11498,0.185747 0.18007,0.2733 0.3097,0.416608 0.73974,0.723416 1.18977,0.971472 0.60941,0.29159 1.23666,0.55895 1.89514,0.71778 0.30292,0.05779 0.59497,0.110257 0.90479,0.06845 0.46609,-0.06288 0.86034,-0.339331 1.25502,-0.576989 0.0825,-0.0689 0.16914,-0.133081 0.24745,-0.206692 0.42821,-0.402526 0.7448,-0.911826 0.94347,-1.462345 0.10118,-0.325585 0.13052,-0.390769 0.1979,-0.728659 0.10356,-0.519494 0.12843,-1.050074 0.11736,-1.578616 -0.0357,-0.823074 -0.12517,-1.643157 -0.31677,-2.446033 -0.17625,-0.700403 -0.38809,-1.394397 -0.73227,-2.033272 -0.24443,-0.464632 -0.50733,-0.921572 -0.81574,-1.347152 -0.20413,-0.251582 -0.42516,-0.483644 -0.68512,-0.678988 -0.16946,-0.145477 -0.33297,-0.299424 -0.51799,-0.425407 -0.11844,-0.08837 -0.23333,-0.180505 -0.35004,-0.271045 0,0 -0.32167,0.208777 -0.32167,0.208777 z" />
    <path
       style="fill:#000000;fill-opacity:1;stroke:none;stroke-width:0.128219;stroke-opacity:1"
       id="path1094"
       sodipodi:type="arc"
       sodipodi:cx="20.63752"
       sodipodi:cy="1.5735447"
       sodipodi:rx="0.36797351"
       sodipodi:ry="0.36797351"
       sodipodi:start="0"
       sodipodi:end="6.2813004"
       sodipodi:open="true"
       sodipodi:arc-type="arc"
       d="M 21.005493,1.5735447 A 0.36797351,0.36797351 0 0 1 20.637693,1.9415182 0.36797351,0.36797351 0 0 1 20.269546,1.5738915 0.36797351,0.36797351 0 0 1 20.637,1.2055716 0.36797351,0.36797351 0 0 1 21.005493,1.5728511" />
    <path
       style="fill:#000000;fill-opacity:1;stroke:none;stroke-width:0.128219;stroke-opacity:1"
       id="path1094-7"
       sodipodi:type="arc"
       sodipodi:cx="6.2803326"
       sodipodi:cy="2.1254053"
       sodipodi:rx="0.36797351"
       sodipodi:ry="0.36797351"
       sodipodi:start="0"
       sodipodi:end="6.2813004"
       sodipodi:open="true"
       sodipodi:arc-type="arc"
       d="M 6.6483061,2.1254053 A 0.36797351,0.36797351 0 0 1 6.280506,2.4933788 0.36797351,0.36797351 0 0 1 5.9123592,2.1257521 0.36797351,0.36797351 0 0 1 6.2798124,1.7574322 0.36797351,0.36797351 0 0 1 6.6483054,2.1247117" />
    <path
       style="fill:#000000;fill-opacity:1;stroke:none;stroke-width:0.128219;stroke-opacity:1"
       id="path1094-9"
       sodipodi:type="arc"
       sodipodi:cx="10.547124"
       sodipodi:cy="25.345058"
       sodipodi:rx="0.36797351"
       sodipodi:ry="0.36797351"
       sodipodi:start="0"
       sodipodi:end="6.2813004"
       sodipodi:open="true"
       sodipodi:arc-type="arc"
       d="m 10.915097,25.345058 a 0.36797351,0.36797351 0 0 1 -0.3678,0.367974 0.36797351,0.36797351 0 0 1 -0.368146,-0.367627 0.36797351,0.36797351 0 0 1 0.367453,-0.36832 0.36797351,0.36797351 0 0 1 0.368493,0.36728" />
    <path
       style="fill:#000000;fill-opacity:1;stroke:none;stroke-width:0.128219;stroke-opacity:1"
       id="path1094-2"
       sodipodi:type="arc"
       sodipodi:cx="20.247282"
       sodipodi:cy="21.381897"
       sodipodi:rx="0.36797351"
       sodipodi:ry="0.36797351"
       sodipodi:start="0"
       sodipodi:end="6.2813004"
       sodipodi:open="true"
       sodipodi:arc-type="arc"
       d="m 20.615256,21.381897 a 0.36797351,0.36797351 0 0 1 -0.367801,0.367973 0.36797351,0.36797351 0 0 1 -0.368146,-0.367626 0.36797351,0.36797351 0 0 1 0.367453,-0.36832 0.36797351,0.36797351 0 0 1 0.368493,0.367279" />
    <path
       style="fill:#000000;fill-opacity:1;stroke:none;stroke-width:0.152618;stroke-opacity:1"
       id="path1094-0"
       sodipodi:type="arc"
       sodipodi:cx="22.55541"
       sodipodi:cy="25.612837"
       sodipodi:rx="0.43799612"
       sodipodi:ry="0.43799612"
       sodipodi:start="0"
       sodipodi:end="6.2813004"
       sodipodi:open="true"
       sodipodi:arc-type="arc"
       d="m 22.993407,25.612837 a 0.43799612,0.43799612 0 0 1 -0.43779,0.437996 0.43799612,0.43799612 0 0 1 -0.438203,-0.437583 0.43799612,0.43799612 0 0 1 0.437377,-0.438409 0.43799612,0.43799612 0 0 1 0.438615,0.43717" />
    <path
       style="fill:#000000;fill-opacity:1;stroke:none;stroke-width:0.128219;stroke-opacity:1"
       id="path1094-23"
       sodipodi:type="arc"
       sodipodi:cx="20.835323"
       sodipodi:cy="8.4055443"
       sodipodi:rx="0.36797351"
       sodipodi:ry="0.36797351"
       sodipodi:start="0"
       sodipodi:end="6.2813004"
       sodipodi:open="true"
       sodipodi:arc-type="arc"
       d="m 21.203297,8.4055443 a 0.36797351,0.36797351 0 0 1 -0.3678,0.3679734 0.36797351,0.36797351 0 0 1 -0.368147,-0.3676266 0.36797351,0.36797351 0 0 1 0.367453,-0.36832 0.36797351,0.36797351 0 0 1 0.368493,0.3672796" />
    <path
       style="fill:#000000;fill-opacity:1;stroke:none;stroke-width:0.152618;stroke-opacity:1"
       id="path1094-75"
       sodipodi:type="arc"
       sodipodi:cx="32.485359"
       sodipodi:cy="15.659678"
       sodipodi:rx="0.43799612"
       sodipodi:ry="0.43799612"
       sodipodi:start="0"
       sodipodi:end="6.2813004"
       sodipodi:open="true"
       sodipodi:arc-type="arc"
       d="m 32.923355,15.659678 a 0.43799612,0.43799612 0 0 1 -0.437789,0.437997 0.43799612,0.43799612 0 0 1 -0.438203,-0.437584 0.43799612,0.43799612 0 0 1 0.437377,-0.438408 0.43799612,0.43799612 0 0 1 0.438615,0.43717" />
    <path
       style="fill:#000000;fill-opacity:1;stroke:none;stroke-width:0.152618;stroke-opacity:1"
       id="path1094-92"
       sodipodi:type="arc"
       sodipodi:cx="39.621651"
       sodipodi:cy="8.8330908"
       sodipodi:rx="0.43799612"
       sodipodi:ry="0.43799612"
       sodipodi:start="0"
       sodipodi:end="6.2813004"
       sodipodi:open="true"
       sodipodi:arc-type="arc"
       d="m 40.059647,8.8330908 a 0.43799612,0.43799612 0 0 1 -0.43779,0.4379961 0.43799612,0.43799612 0 0 1 -0.438202,-0.4375833 0.43799612,0.43799612 0 0 1 0.437377,-0.4384085 0.43799612,0.43799612 0 0 1 0.438614,0.4371701" />
    <path
       style="fill:#000000;fill-opacity:1;stroke:none;stroke-width:0.152618;stroke-opacity:1"
       id="path1094-28"
       sodipodi:type="arc"
       sodipodi:cx="39.796078"
       sodipodi:cy="23.122459"
       sodipodi:rx="0.43799612"
       sodipodi:ry="0.43799612"
       sodipodi:start="0"
       sodipodi:end="6.2813004"
       sodipodi:open="true"
       sodipodi:arc-type="arc"
       d="m 40.234074,23.122459 a 0.43799612,0.43799612 0 0 1 -0.43779,0.437996 0.43799612,0.43799612 0 0 1 -0.438202,-0.437583 0.43799612,0.43799612 0 0 1 0.437377,-0.438408 0.43799612,0.43799612 0 0 1 0.438614,0.43717" />
    <path
       style="fill:#000000;fill-opacity:1;stroke:none;stroke-width:0.152618;stroke-opacity:1"
       id="path1094-97"
       sodipodi:type="arc"
       sodipodi:cx="51.995686"
       sodipodi:cy="22.410074"
       sodipodi:rx="0.43799612"
       sodipodi:ry="0.43799612"
       sodipodi:start="0"
       sodipodi:end="6.2813004"
       sodipodi:open="true"
       sodipodi:arc-type="arc"
       d="m 52.433682,22.410074 a 0.43799612,0.43799612 0 0 1 -0.43779,0.437996 0.43799612,0.43799612 0 0 1 -0.438202,-0.437583 0.43799612,0.43799612 0 0 1 0.437376,-0.438408 0.43799612,0.43799612 0 0 1 0.438615,0.43717" />
    <path
       style="fill:#000000;fill-opacity:1;stroke:none;stroke-width:0.152618;stroke-opacity:1"
       id="path1094-3"
       sodipodi:type="arc"
       sodipodi:cx="51.843517"
       sodipodi:cy="7.0026922"
       sodipodi:rx="0.43799612"
       sodipodi:ry="0.43799612"
       sodipodi:start="0"
       sodipodi:end="6.2813004"
       sodipodi:open="true"
       sodipodi:arc-type="arc"
       d="M 52.281513,7.0026922 A 0.43799612,0.43799612 0 0 1 51.843724,7.4406883 0.43799612,0.43799612 0 0 1 51.405521,7.003105 0.43799612,0.43799612 0 0 1 51.842898,6.5646965 0.43799612,0.43799612 0 0 1 52.281513,7.0018666" />
    <path
       style="fill:#000000;fill-opacity:1;stroke:none;stroke-width:0.152618;stroke-opacity:1"
       id="path1094-6"
       sodipodi:type="arc"
       sodipodi:cx="51.862537"
       sodipodi:cy="15.448219"
       sodipodi:rx="0.43799612"
       sodipodi:ry="0.43799612"
       sodipodi:start="0"
       sodipodi:end="6.2813004"
       sodipodi:open="true"
       sodipodi:arc-type="arc"
       d="m 52.300534,15.448219 a 0.43799612,0.43799612 0 0 1 -0.43779,0.437996 0.43799612,0.43799612 0 0 1 -0.438203,-0.437583 0.43799612,0.43799612 0 0 1 0.437377,-0.438408 0.43799612,0.43799612 0 0 1 0.438615,0.43717" />
    <path
       style="fill:#000000;fill-opacity:1;stroke:none;stroke-width:0.152618;stroke-opacity:1"
       id="path1094-1"
       sodipodi:type="arc"
       sodipodi:cx="60.864769"
       sodipodi:cy="14.925634"
       sodipodi:rx="0.43799612"
       sodipodi:ry="0.43799612"
       sodipodi:start="0"
       sodipodi:end="6.2813004"
       sodipodi:open="true"
       sodipodi:arc-type="arc"
       d="m 61.302765,14.925634 a 0.43799612,0.43799612 0 0 1 -0.43779,0.437996 0.43799612,0.43799612 0 0 1 -0.438202,-0.437583 0.43799612,0.43799612 0 0 1 0.437377,-0.438408 0.43799612,0.43799612 0 0 1 0.438614,0.43717" />
    <path
       style="fill:#000000;fill-opacity:1;stroke:none;stroke-width:0.152618;stroke-opacity:1"
       id="path1094-29"
       sodipodi:type="arc"
       sodipodi:cx="67.245705"
       sodipodi:cy="14.54905"
       sodipodi:rx="0.43799612"
       sodipodi:ry="0.43799612"
       sodipodi:start="0"
       sodipodi:end="6.2813004"
       sodipodi:open="true"
       sodipodi:arc-type="arc"
       d="m 67.683701,14.54905 a 0.43799612,0.43799612 0 0 1 -0.43779,0.437996 0.43799612,0.43799612 0 0 1 -0.438202,-0.437583 0.43799612,0.43799612 0 0 1 0.437376,-0.438408 0.43799612,0.43799612 0 0 1 0.438615,0.43717" />
    <path
       style="fill:#000000;fill-opacity:1;stroke:none;stroke-width:0.152618;stroke-opacity:1"
       id="path1094-31"
       sodipodi:type="arc"
       sodipodi:cx="60.829021"
       sodipodi:cy="7.8363047"
       sodipodi:rx="0.43799612"
       sodipodi:ry="0.43799612"
       sodipodi:start="0"
       sodipodi:end="6.2813004"
       sodipodi:open="true"
       sodipodi:arc-type="arc"
       d="m 61.267018,7.8363047 a 0.43799612,0.43799612 0 0 1 -0.43779,0.437996 0.43799612,0.43799612 0 0 1 -0.438202,-0.4375832 0.43799612,0.43799612 0 0 1 0.437376,-0.4384085 0.43799612,0.43799612 0 0 1 0.438615,0.4371701" />
    <path
       style="fill:#000000;fill-opacity:1;stroke:none;stroke-width:0.152618;stroke-opacity:1"
       id="path1094-94"
       sodipodi:type="arc"
       sodipodi:cx="60.983219"
       sodipodi:cy="22.174812"
       sodipodi:rx="0.43799612"
       sodipodi:ry="0.43799612"
       sodipodi:start="0"
       sodipodi:end="6.2813004"
       sodipodi:open="true"
       sodipodi:arc-type="arc"
       d="m 61.421215,22.174812 a 0.43799612,0.43799612 0 0 1 -0.437789,0.437996 0.43799612,0.43799612 0 0 1 -0.438203,-0.437583 0.43799612,0.43799612 0 0 1 0.437377,-0.438408 0.43799612,0.43799612 0 0 1 0.438614,0.43717" />
    <path
       style="fill:#000000;fill-opacity:1;stroke:none;stroke-width:0.152618;stroke-opacity:1"
       id="path1094-78"
       sodipodi:type="arc"
       sodipodi:cx="73.000191"
       sodipodi:cy="20.813759"
       sodipodi:rx="0.43799612"
       sodipodi:ry="0.43799612"
       sodipodi:start="0"
       sodipodi:end="6.2813004"
       sodipodi:open="true"
       sodipodi:arc-type="arc"
       d="m 73.438187,20.813759 a 0.43799612,0.43799612 0 0 1 -0.43779,0.437996 0.43799612,0.43799612 0 0 1 -0.438202,-0.437583 0.43799612,0.43799612 0 0 1 0.437377,-0.438409 0.43799612,0.43799612 0 0 1 0.438614,0.43717" />
    <path
       style="fill:#000000;fill-opacity:1;stroke:none;stroke-width:0.152618;stroke-opacity:1"
       id="path1094-4"
       sodipodi:type="arc"
       sodipodi:cx="72.834579"
       sodipodi:cy="6.4588671"
       sodipodi:rx="0.43799612"
       sodipodi:ry="0.43799612"
       sodipodi:start="0"
       sodipodi:end="6.2813004"
       sodipodi:open="true"
       sodipodi:arc-type="arc"
       d="m 73.272576,6.4588671 a 0.43799612,0.43799612 0 0 1 -0.43779,0.437996 0.43799612,0.43799612 0 0 1 -0.438202,-0.4375832 0.43799612,0.43799612 0 0 1 0.437376,-0.4384085 0.43799612,0.43799612 0 0 1 0.438615,0.4371701" />
    <path
       style="fill:#000000;fill-opacity:1;stroke:none;stroke-width:0.152618;stroke-opacity:1"
       id="path1094-5"
       sodipodi:type="arc"
       sodipodi:cx="78.545532"
       sodipodi:cy="16.589561"
       sodipodi:rx="0.43799612"
       sodipodi:ry="0.43799612"
       sodipodi:start="0"
       sodipodi:end="6.2813004"
       sodipodi:open="true"
       sodipodi:arc-type="arc"
       d="m 78.983528,16.589561 a 0.43799612,0.43799612 0 0 1 -0.437789,0.437997 0.43799612,0.43799612 0 0 1 -0.438203,-0.437584 0.43799612,0.43799612 0 0 1 0.437377,-0.438408 0.43799612,0.43799612 0 0 1 0.438615,0.43717" />
    <path
       style="fill:#000000;fill-opacity:1;stroke:none;stroke-width:0.152618;stroke-opacity:1"
       id="path1094-03"
       sodipodi:type="arc"
       sodipodi:cx="83.839806"
       sodipodi:cy="21.74358"
       sodipodi:rx="0.43799612"
       sodipodi:ry="0.43799612"
       sodipodi:start="0"
       sodipodi:end="6.2813004"
       sodipodi:open="true"
       sodipodi:arc-type="arc"
       d="m 84.277802,21.74358 a 0.43799612,0.43799612 0 0 1 -0.43779,0.437996 0.43799612,0.43799612 0 0 1 -0.438202,-0.437583 0.43799612,0.43799612 0 0 1 0.437376,-0.438409 0.43799612,0.43799612 0 0 1 0.438615,0.43717" />
    <path
       style="fill:#000000;fill-opacity:1;stroke:none;stroke-width:0.152618;stroke-opacity:1"
       id="path1094-61"
       sodipodi:type="arc"
       sodipodi:cx="83.701744"
       sodipodi:cy="5.340188"
       sodipodi:rx="0.43799612"
       sodipodi:ry="0.43799612"
       sodipodi:start="0"
       sodipodi:end="6.2813004"
       sodipodi:open="true"
       sodipodi:arc-type="arc"
       d="M 84.13974,5.340188 A 0.43799612,0.43799612 0 0 1 83.70195,5.7781841 0.43799612,0.43799612 0 0 1 83.263748,5.3406008 0.43799612,0.43799612 0 0 1 83.701125,4.9021923 0.43799612,0.43799612 0 0 1 84.139739,5.3393624" />
    <path
       style="fill:#000000;fill-opacity:1;stroke:none;stroke-width:0.152618;stroke-opacity:1"
       id="path1094-06"
       sodipodi:type="arc"
       sodipodi:cx="92.201874"
       sodipodi:cy="6.6576409"
       sodipodi:rx="0.43799612"
       sodipodi:ry="0.43799612"
       sodipodi:start="0"
       sodipodi:end="6.2813004"
       sodipodi:open="true"
       sodipodi:arc-type="arc"
       d="M 92.63987,6.6576409 A 0.43799612,0.43799612 0 0 1 92.20208,7.095637 0.43799612,0.43799612 0 0 1 91.763878,6.6580537 0.43799612,0.43799612 0 0 1 92.201255,6.2196453 0.43799612,0.43799612 0 0 1 92.639869,6.6568154" />
    <path
       style="fill:#000000;fill-opacity:1;stroke:none;stroke-width:0.152618;stroke-opacity:1"
       id="path1094-32"
       sodipodi:type="arc"
       sodipodi:cx="92.326416"
       sodipodi:cy="20.364918"
       sodipodi:rx="0.43799612"
       sodipodi:ry="0.43799612"
       sodipodi:start="0"
       sodipodi:end="6.2813004"
       sodipodi:open="true"
       sodipodi:arc-type="arc"
       d="m 92.764412,20.364918 a 0.43799612,0.43799612 0 0 1 -0.43779,0.437996 0.43799612,0.43799612 0 0 1 -0.438202,-0.437583 0.43799612,0.43799612 0 0 1 0.437377,-0.438409 0.43799612,0.43799612 0 0 1 0.438614,0.43717" />
    <path
       style="fill:#000000;fill-opacity:1;stroke:none;stroke-width:0.152618;stroke-opacity:1"
       id="path1094-061"
       sodipodi:type="arc"
       sodipodi:cx="99.156616"
       sodipodi:cy="19.673965"
       sodipodi:rx="0.43799612"
       sodipodi:ry="0.43799612"
       sodipodi:start="0"
       sodipodi:end="6.2813004"
       sodipodi:open="true"
       sodipodi:arc-type="arc"
       d="m 99.594612,19.673965 a 0.43799612,0.43799612 0 0 1 -0.437789,0.437997 0.43799612,0.43799612 0 0 1 -0.438203,-0.437584 0.43799612,0.43799612 0 0 1 0.437377,-0.438408 0.43799612,0.43799612 0 0 1 0.438615,0.43717" />
    <path
       style="fill:#000000;fill-opacity:1;stroke:none;stroke-width:0.152618;stroke-opacity:1"
       id="path1094-55"
       sodipodi:type="arc"
       sodipodi:cx="99.160271"
       sodipodi:cy="7.617136"
       sodipodi:rx="0.43799612"
       sodipodi:ry="0.43799612"
       sodipodi:start="0"
       sodipodi:end="6.2813004"
       sodipodi:open="true"
       sodipodi:arc-type="arc"
       d="m 99.598267,7.617136 a 0.43799612,0.43799612 0 0 1 -0.43779,0.4379961 0.43799612,0.43799612 0 0 1 -0.438202,-0.4375833 0.43799612,0.43799612 0 0 1 0.437377,-0.4384085 0.43799612,0.43799612 0 0 1 0.438614,0.4371701" />
    <path
       style="fill:#000000;fill-opacity:1;stroke:none;stroke-width:0.152618;stroke-opacity:1"
       id="path1094-061-4"
       sodipodi:type="arc"
       sodipodi:cx="114.33782"
       sodipodi:cy="22.208103"
       sodipodi:rx="0.43799612"
       sodipodi:ry="0.43799612"
       sodipodi:start="0"
       sodipodi:end="6.2813004"
       sodipodi:open="true"
       sodipodi:arc-type="arc"
       d="m 114.77582,22.208103 a 0.43799612,0.43799612 0 0 1 -0.43779,0.437996 0.43799612,0.43799612 0 0 1 -0.4382,-0.437583 0.43799612,0.43799612 0 0 1 0.43737,-0.438409 0.43799612,0.43799612 0 0 1 0.43862,0.437171" />
  </g>
</svg>
