<?xml version="1.0" encoding="UTF-8" standalone="no"?>
<svg
   width="4in"
   height="3in"
   viewBox="0 0 101.6 76.200002"
   version="1.1"
   id="svg8"
   inkscape:version="1.2.1 (9c6d41e410, 2022-07-14)"
   sodipodi:docname="spring-pendulum.svg"
   xmlns:inkscape="http://www.inkscape.org/namespaces/inkscape"
   xmlns:sodipodi="http://sodipodi.sourceforge.net/DTD/sodipodi-0.dtd"
   xmlns="http://www.w3.org/2000/svg"
   xmlns:svg="http://www.w3.org/2000/svg"
   xmlns:rdf="http://www.w3.org/1999/02/22-rdf-syntax-ns#"
   xmlns:cc="http://creativecommons.org/ns#"
   xmlns:dc="http://purl.org/dc/elements/1.1/">
  <defs
     id="defs2">
    <marker
       style="overflow:visible"
       id="TriangleStart"
       refX="0"
       refY="0"
       orient="auto-start-reverse"
       inkscape:stockid="TriangleStart"
       markerWidth="5.3244081"
       markerHeight="6.155385"
       viewBox="0 0 5.3244081 6.1553851"
       inkscape:isstock="true"
       inkscape:collect="always"
       preserveAspectRatio="xMidYMid">
      <path
         transform="scale(0.5)"
         style="fill:context-stroke;fill-rule:evenodd;stroke:context-stroke;stroke-width:1pt"
         d="M 5.77,0 -2.88,5 V -5 Z"
         id="path135" />
    </marker>
  </defs>
  <sodipodi:namedview
     id="base"
     pagecolor="#ffffff"
     bordercolor="#666666"
     borderopacity="1.0"
     inkscape:pageopacity="0.0"
     inkscape:pageshadow="2"
     inkscape:zoom="2.3819444"
     inkscape:cx="203.40525"
     inkscape:cy="151.97668"
     inkscape:document-units="mm"
     inkscape:current-layer="layer1"
     inkscape:document-rotation="0"
     showgrid="false"
     units="in"
     inkscape:window-width="1343"
     inkscape:window-height="908"
     inkscape:window-x="569"
     inkscape:window-y="136"
     inkscape:window-maximized="0"
     inkscape:showpageshadow="2"
     inkscape:pagecheckerboard="0"
     inkscape:deskcolor="#d1d1d1" />
  <metadata
     id="metadata5">
    <rdf:RDF>
      <cc:Work
         rdf:about="">
        <dc:format>image/svg+xml</dc:format>
        <dc:type
           rdf:resource="http://purl.org/dc/dcmitype/StillImage" />
      </cc:Work>
    </rdf:RDF>
  </metadata>
  <g
     inkscape:label="Layer 1"
     inkscape:groupmode="layer"
     id="layer1">
    <path
       style="fill:none;stroke:#000000;stroke-width:0.52916667;stroke-linecap:butt;stroke-linejoin:miter;stroke-opacity:1;stroke-dasharray:none"
       d="M 7.3176828,15.786669 H 90.857173"
       id="path1736" />
    <path
       style="fill:none;stroke:#000000;stroke-width:0.264583px;stroke-linecap:butt;stroke-linejoin:miter;stroke-opacity:1"
       d="M 96.65406,9.5037154 90.912882,15.865527"
       id="path1193"
       sodipodi:nodetypes="cc" />
    <path
       style="fill:none;stroke:#000000;stroke-width:0.264583px;stroke-linecap:butt;stroke-linejoin:miter;stroke-opacity:1"
       d="m 87.423037,9.5037154 -5.74118,6.3618116"
       id="path1195"
       sodipodi:nodetypes="cc" />
    <path
       style="fill:none;stroke:#000000;stroke-width:0.264583px;stroke-linecap:butt;stroke-linejoin:miter;stroke-opacity:1"
       d="m 78.192013,9.5037154 -5.74118,6.3618116"
       id="path1197"
       sodipodi:nodetypes="cc" />
    <path
       style="fill:none;stroke:#000000;stroke-width:0.264583px;stroke-linecap:butt;stroke-linejoin:miter;stroke-opacity:1"
       d="m 68.960988,9.5037154 -5.74118,6.3618116"
       id="path1199"
       sodipodi:nodetypes="cc" />
    <path
       style="fill:none;stroke:#000000;stroke-width:0.264583px;stroke-linecap:butt;stroke-linejoin:miter;stroke-opacity:1"
       d="m 59.729964,9.5037154 -5.74118,6.3618116"
       id="path1201"
       sodipodi:nodetypes="cc" />
    <path
       style="fill:none;stroke:#000000;stroke-width:0.264583px;stroke-linecap:butt;stroke-linejoin:miter;stroke-opacity:1"
       d="M 50.49894,9.5037154 44.75776,15.865527"
       id="path1203"
       sodipodi:nodetypes="cc" />
    <path
       style="fill:none;stroke:#000000;stroke-width:0.264583px;stroke-linecap:butt;stroke-linejoin:miter;stroke-opacity:1"
       d="m 41.267916,9.5037154 -5.74118,6.3618116"
       id="path1205"
       sodipodi:nodetypes="cc" />
    <path
       style="fill:none;stroke:#000000;stroke-width:0.264583px;stroke-linecap:butt;stroke-linejoin:miter;stroke-opacity:1"
       d="M 32.036891,9.5037154 26.295712,15.865527"
       id="path1207"
       sodipodi:nodetypes="cc" />
    <path
       style="fill:none;stroke:#000000;stroke-width:0.264583px;stroke-linecap:butt;stroke-linejoin:miter;stroke-opacity:1"
       d="m 22.805867,9.5037154 -5.74118,6.3618116"
       id="path1253"
       sodipodi:nodetypes="cc" />
    <path
       style="fill:none;stroke:#000000;stroke-width:0.264583px;stroke-linecap:butt;stroke-linejoin:miter;stroke-opacity:1"
       d="M 13.574843,9.5037154 7.8336631,15.865527"
       id="path1255"
       sodipodi:nodetypes="cc" />
    <path
       style="fill:none;stroke:#000000;stroke-width:0.52916667;stroke-linecap:butt;stroke-linejoin:miter;stroke-opacity:1;stroke-dasharray:none"
       d="m 41.620492,15.993216 c 0,0 0.116981,4.909828 4.649108,4.909828 4.532127,0 5.162285,-5.162833 5.162285,-5.162833"
       id="path2196"
       sodipodi:nodetypes="czc" />
    <rect
       style="opacity:1;fill:#ffffff;stroke:#000000;stroke-width:0.529167;stroke-dasharray:none"
       id="rect2198"
       width="2.6311836"
       height="2.6311836"
       x="45.012714"
       y="17.465187"
       ry="1.3155918" />
    <path
       style="fill:none;stroke:#000000;stroke-width:0.529167;stroke-linecap:butt;stroke-linejoin:miter;stroke-dasharray:none;stroke-opacity:1"
       d="M 47.416033,20.796161 73.846898,66.848352"
       id="path2200"
       sodipodi:nodetypes="cc" />
    <rect
       style="opacity:1;fill:#ffffff;stroke:#000000;stroke-width:0.93402;stroke-dasharray:none"
       id="rect2202"
       width="8.8497658"
       height="8.8497658"
       x="54.12289"
       y="35.990276"
       ry="4.4248829" />
    <text
       xml:space="preserve"
       style="font-style:normal;font-weight:normal;font-size:6.35px;line-height:1.25;font-family:sans-serif;fill:#000000;fill-opacity:1;stroke:none;stroke-width:0.264583"
       x="48.340157"
       y="41.279102"
       id="text1015"><tspan
         sodipodi:role="line"
         id="tspan1013"
         style="font-size:6.35px;stroke-width:0.264583"
         x="48.340157"
         y="41.279102">ϴ</tspan></text>
    <path
       style="fill:none;stroke:#000000;stroke-width:0.264583px;stroke-linecap:butt;stroke-linejoin:miter;stroke-opacity:1"
       d="m 46.845856,33.500159 c 2.978549,0.140472 4.828732,-1.093844 6.341585,-2.678696"
       id="path1259"
       sodipodi:nodetypes="cc" />
    <rect
       style="opacity:1;fill:#ffffff;stroke:#000000;stroke-width:0.965188;stroke-dasharray:none"
       id="rect2204"
       width="9.1450777"
       height="9.1450777"
       x="69.116188"
       y="61.853809"
       ry="4.5725389" />
    <path
       sodipodi:nodetypes="ccccccccccccccccccccccccccccccccccccccccccccccccccc"
       d="m 71.218204,62.138722 -1.693138,-3.016199 c 0.741419,-0.450766 1.507921,-0.54309 1.728713,-0.166247 0.345959,0.590479 -0.151037,1.142783 -0.903745,1.58379 -0.922715,0.540618 -1.81126,0.03485 -2.073774,-0.413202 -0.262515,-0.448055 -0.366061,-1.509403 0.611686,-2.082264 0.752702,-0.441009 1.519203,-0.533333 1.739995,-0.156489 0.345961,0.590478 -0.151037,1.142782 -0.903742,1.58379 -0.922717,0.540618 -1.811262,0.03485 -2.073776,-0.413203 -0.262515,-0.448054 -0.36606,-1.509402 0.611686,-2.082264 0.752703,-0.441008 1.519203,-0.533333 1.739997,-0.156488 0.345959,0.590477 -0.151038,1.142782 -0.903744,1.583788 -0.922717,0.540619 -1.811261,0.03485 -2.073775,-0.413201 -0.262516,-0.448055 -0.366061,-1.509403 0.611686,-2.082263 0.752704,-0.441009 1.519205,-0.533333 1.739997,-0.156488 0.345959,0.590477 -0.151037,1.142781 -0.903745,1.583789 -0.922717,0.540618 -1.81126,0.03485 -2.073774,-0.413201 -0.262515,-0.448056 -0.366061,-1.509404 0.611687,-2.082262 0.752705,-0.441005 1.519206,-0.53333 1.739999,-0.156485 0.34596,0.590476 -0.151037,1.142781 -0.903744,1.583788 -0.922717,0.540619 -1.81126,0.03485 -2.073775,-0.413201 -0.262515,-0.448056 -0.36606,-1.509403 0.611686,-2.082262 0.752704,-0.441008 1.519205,-0.533334 1.739998,-0.156489 0.345959,0.590477 -0.151037,1.142781 -0.903744,1.583789 -0.922717,0.540617 -1.811261,0.03485 -2.073775,-0.413201 -0.262516,-0.448056 -0.366061,-1.509403 0.611686,-2.082263 0.752704,-0.441008 1.519205,-0.533333 1.739997,-0.156489 0.345959,0.590477 -0.151037,1.142781 -0.903744,1.583788 -0.922717,0.540619 -1.811261,0.03485 -2.073775,-0.413199 -0.262515,-0.448056 -0.366061,-1.509404 0.611686,-2.082265 0.752704,-0.441006 1.519205,-0.533332 1.739998,-0.156487 0.345958,0.590477 -0.151037,1.14278 -0.903745,1.583787 -0.922716,0.54062 -1.81126,0.03485 -2.073774,-0.413199 -0.262515,-0.448057 -0.366061,-1.509404 0.611687,-2.082264 0.752702,-0.441007 1.519205,-0.533333 1.739996,-0.156487 0.34596,0.590476 -0.151037,1.142781 -0.903744,1.583787 -0.922716,0.54062 -1.81126,0.03485 -2.073774,-0.4132 -0.262515,-0.448056 -0.36606,-1.509403 0.611686,-2.082263 0.752704,-0.441008 1.519205,-0.533333 1.739997,-0.156488 0.345959,0.590476 -0.151045,1.142779 -0.903743,1.583788 -0.922717,0.540618 -1.811261,0.03485 -2.073776,-0.4132 -0.262515,-0.448056 -0.36606,-1.509405 0.611686,-2.082264 0.752703,-0.441008 1.519205,-0.533332 1.739997,-0.156488 0.34596,0.590478 -0.151037,1.142781 -0.903743,1.583788 -0.922717,0.540619 -1.81126,0.03485 -2.073775,-0.413199 -0.262515,-0.448056 -0.366061,-1.509405 0.611685,-2.082266 0.752704,-0.441007 1.519204,-0.533331 1.739998,-0.156486 0.34596,0.590477 -0.151037,1.14278 -0.903744,1.583787 -0.922716,0.54062 -1.81126,0.03485 -2.073775,-0.413199 -0.262515,-0.448057 -0.354268,-1.516313 0.645306,-2.078953 l -0.92902,-1.585633"
       style="fill:none;fill-opacity:1;fill-rule:nonzero;stroke:#000000;stroke-width:0.297988;stroke-miterlimit:4;stroke-opacity:1"
       id="path5102"
       inkscape:connector-curvature="0" />
    <path
       style="fill:none;stroke:#000000;stroke-width:0.264583px;stroke-linecap:butt;stroke-linejoin:miter;stroke-opacity:1;stroke-dasharray:2.11666393,0.26458299;stroke-dashoffset:0"
       d="M 46.400434,21.247063 V 64.499868"
       id="path2607" />
    <path
       style="fill:none;stroke:#000000;stroke-width:0.529167;stroke-linecap:butt;stroke-linejoin:miter;stroke-dasharray:none;stroke-opacity:1;marker-end:url(#TriangleStart)"
       d="M 20.288816,28.728515 V 45.802091"
       id="path1355" />
    <text
       xml:space="preserve"
       style="font-style:normal;font-weight:normal;font-size:6.35px;line-height:1.25;font-family:sans-serif;fill:#000000;fill-opacity:1;stroke:none;stroke-width:0.264583"
       x="14.015823"
       y="37.712101"
       id="text1578"><tspan
         sodipodi:role="line"
         id="tspan1576"
         style="font-size:6.35px;stroke-width:0.264583"
         x="14.015823"
         y="37.712101">g</tspan></text>
    <text
       xml:space="preserve"
       style="font-style:normal;font-weight:normal;font-size:6.35px;line-height:1.25;font-family:sans-serif;fill:#000000;fill-opacity:1;stroke:none;stroke-width:0.264583"
       x="71.649063"
       y="68.528709"
       id="text2683"><tspan
         sodipodi:role="line"
         id="tspan2681"
         style="font-size:6.35px;stroke-width:0.264583"
         x="71.649063"
         y="68.528709">A</tspan></text>
    <text
       xml:space="preserve"
       style="font-style:normal;font-weight:normal;font-size:6.35px;line-height:1.25;font-family:sans-serif;fill:#000000;fill-opacity:1;stroke:none;stroke-width:0.264583"
       x="56.295555"
       y="42.707863"
       id="text2687"><tspan
         sodipodi:role="line"
         id="tspan2685"
         style="font-size:6.35px;stroke-width:0.264583"
         x="56.295555"
         y="42.707863">B</tspan></text>
    <text
       xml:space="preserve"
       style="font-style:normal;font-weight:normal;font-size:6.35px;line-height:1.25;font-family:sans-serif;fill:#000000;fill-opacity:1;stroke:none;stroke-width:0.264583"
       x="69.337395"
       y="53.384487"
       id="text2691"><tspan
         sodipodi:role="line"
         id="tspan2689"
         style="font-size:6.35px;stroke-width:0.264583"
         x="69.337395"
         y="53.384487">k</tspan></text>
  </g>
</svg>
