<?xml version="1.0" encoding="UTF-8" standalone="no"?>
<svg
   xmlns:dc="http://purl.org/dc/elements/1.1/"
   xmlns:cc="http://creativecommons.org/ns#"
   xmlns:rdf="http://www.w3.org/1999/02/22-rdf-syntax-ns#"
   xmlns:svg="http://www.w3.org/2000/svg"
   xmlns="http://www.w3.org/2000/svg"
   xmlns:sodipodi="http://sodipodi.sourceforge.net/DTD/sodipodi-0.dtd"
   xmlns:inkscape="http://www.inkscape.org/namespaces/inkscape"
   width="4in"
   height="3in"
   viewBox="0 0 178.39872 133.79904"
   version="1.1"
   id="svg8"
   inkscape:version="1.0.1 (3bc2e813f5, 2020-09-07)"
   sodipodi:docname="flywheel-constraints.svg">
  <defs
     id="defs2">
    <marker
       style="overflow:visible;"
       id="marker1614"
       refX="0.0"
       refY="0.0"
       orient="auto"
       inkscape:stockid="Arrow2Mend"
       inkscape:isstock="true">
      <path
         transform="scale(0.6) rotate(180) translate(0,0)"
         d="M 8.7185878,4.0337352 L -2.2072895,0.016013256 L 8.7185884,-4.0017078 C 6.9730900,-1.6296469 6.9831476,1.6157441 8.7185878,4.0337352 z "
         style="fill-rule:evenodd;stroke-width:0.625;stroke-linejoin:round;stroke:#000000;stroke-opacity:1;fill:#000000;fill-opacity:1"
         id="path1612" />
    </marker>
    <marker
       style="overflow:visible;"
       id="Arrow2Mend"
       refX="0.0"
       refY="0.0"
       orient="auto"
       inkscape:stockid="Arrow2Mend"
       inkscape:isstock="true"
       inkscape:collect="always">
      <path
         transform="scale(0.6) rotate(180) translate(0,0)"
         d="M 8.7185878,4.0337352 L -2.2072895,0.016013256 L 8.7185884,-4.0017078 C 6.9730900,-1.6296469 6.9831476,1.6157441 8.7185878,4.0337352 z "
         style="fill-rule:evenodd;stroke-width:0.625;stroke-linejoin:round;stroke:#000000;stroke-opacity:1;fill:#000000;fill-opacity:1"
         id="path1055" />
    </marker>
    <marker
       style="overflow:visible"
       id="marker1376"
       refX="0.0"
       refY="0.0"
       orient="auto"
       inkscape:stockid="Arrow2Mstart"
       inkscape:isstock="true">
      <path
         transform="scale(0.6) translate(0,0)"
         d="M 8.7185878,4.0337352 L -2.2072895,0.016013256 L 8.7185884,-4.0017078 C 6.9730900,-1.6296469 6.9831476,1.6157441 8.7185878,4.0337352 z "
         style="fill-rule:evenodd;stroke-width:0.625;stroke-linejoin:round;stroke:#000000;stroke-opacity:1;fill:#000000;fill-opacity:1"
         id="path1374" />
    </marker>
    <marker
       style="overflow:visible"
       id="Arrow2Mstart"
       refX="0.0"
       refY="0.0"
       orient="auto"
       inkscape:stockid="Arrow2Mstart"
       inkscape:isstock="true">
      <path
         transform="scale(0.6) translate(0,0)"
         d="M 8.7185878,4.0337352 L -2.2072895,0.016013256 L 8.7185884,-4.0017078 C 6.9730900,-1.6296469 6.9831476,1.6157441 8.7185878,4.0337352 z "
         style="fill-rule:evenodd;stroke-width:0.625;stroke-linejoin:round;stroke:#000000;stroke-opacity:1;fill:#000000;fill-opacity:1"
         id="path1052" />
    </marker>
    <marker
       style="overflow:visible;"
       id="Arrow1Lend"
       refX="0.0"
       refY="0.0"
       orient="auto"
       inkscape:stockid="Arrow1Lend"
       inkscape:isstock="true">
      <path
         transform="scale(0.8) rotate(180) translate(12.5,0)"
         style="fill-rule:evenodd;stroke:#000000;stroke-width:1pt;stroke-opacity:1;fill:#000000;fill-opacity:1"
         d="M 0.0,0.0 L 5.0,-5.0 L -12.5,0.0 L 5.0,5.0 L 0.0,0.0 z "
         id="path1031" />
    </marker>
  </defs>
  <sodipodi:namedview
     id="base"
     pagecolor="#ffffff"
     bordercolor="#666666"
     borderopacity="1.0"
     inkscape:pageopacity="0.0"
     inkscape:pageshadow="2"
     inkscape:zoom="1.875"
     inkscape:cx="192"
     inkscape:cy="144.53333"
     inkscape:document-units="px"
     inkscape:current-layer="layer2"
     inkscape:document-rotation="0"
     showgrid="false"
     units="in"
     objecttolerance="6.8"
     guidetolerance="5.6"
     scale-x="0.46458"
     inkscape:window-width="1620"
     inkscape:window-height="846"
     inkscape:window-x="300"
     inkscape:window-y="323"
     inkscape:window-maximized="0" />
  <metadata
     id="metadata5">
    <rdf:RDF>
      <cc:Work
         rdf:about="">
        <dc:format>image/svg+xml</dc:format>
        <dc:type
           rdf:resource="http://purl.org/dc/dcmitype/StillImage" />
        <dc:title></dc:title>
      </cc:Work>
    </rdf:RDF>
  </metadata>
  <g
     inkscape:label="background"
     inkscape:groupmode="layer"
     id="layer1"
     style="display:inline">
    <path
       style="opacity:1;fill:none;fill-opacity:1;stroke:#000000;stroke-width:0.92916;stroke-miterlimit:4;stroke-dasharray:none;stroke-dashoffset:0"
       id="path830"
       sodipodi:type="arc"
       sodipodi:cx="45.842667"
       sodipodi:cy="64.269508"
       sodipodi:rx="44.395786"
       sodipodi:ry="44.395786"
       sodipodi:start="0"
       sodipodi:end="6.2813004"
       sodipodi:open="true"
       sodipodi:arc-type="arc"
       d="M 90.238453,64.269508 A 44.395786,44.395786 0 0 1 45.863587,108.66529 44.395786,44.395786 0 0 1 1.4469001,64.311349 44.395786,44.395786 0 0 1 45.779905,19.873766 44.395786,44.395786 0 0 1 90.238374,64.185826" />
    <path
       style="opacity:1;fill:none;fill-opacity:1;stroke:#000000;stroke-width:0.92916;stroke-miterlimit:4;stroke-dasharray:none;stroke-dashoffset:0"
       id="path830-3"
       sodipodi:type="arc"
       sodipodi:cx="45.842667"
       sodipodi:cy="64.269508"
       sodipodi:rx="2.9244447"
       sodipodi:ry="2.9244447"
       sodipodi:start="0"
       sodipodi:end="6.2813004"
       sodipodi:open="true"
       sodipodi:arc-type="arc"
       d="m 48.767111,64.269508 a 2.9244447,2.9244447 0 0 1 -2.923066,2.924445 2.9244447,2.9244447 0 0 1 -2.925822,-2.921688 2.9244447,2.9244447 0 0 1 2.920309,-2.927198 2.9244447,2.9244447 0 0 1 2.928574,2.918929" />
    <path
       style="fill:none;stroke:#000000;stroke-width:0.46458;stroke-linecap:butt;stroke-linejoin:miter;stroke-miterlimit:4;stroke-dasharray:3.71664, 0.46458;stroke-dashoffset:0;stroke-opacity:1"
       d="M 45.913782,64.347201 H 171.26207"
       id="path879" />
  </g>
  <g
     inkscape:label="6oclock"
     inkscape:groupmode="layer"
     id="g907"
     style="display:none">
    <path
       style="opacity:1;fill:none;fill-opacity:1;stroke:#000000;stroke-width:0.92916;stroke-miterlimit:4;stroke-dasharray:none;stroke-dashoffset:0"
       id="path891"
       sodipodi:type="arc"
       sodipodi:cx="45.842667"
       sodipodi:cy="64.269508"
       sodipodi:rx="44.395786"
       sodipodi:ry="44.395786"
       sodipodi:start="0"
       sodipodi:end="6.2813004"
       sodipodi:open="true"
       sodipodi:arc-type="arc"
       d="M 90.238453,64.269508 A 44.395786,44.395786 0 0 1 45.863587,108.66529 44.395786,44.395786 0 0 1 1.4469001,64.311349 44.395786,44.395786 0 0 1 45.779905,19.873766 44.395786,44.395786 0 0 1 90.238374,64.185826" />
    <path
       style="opacity:1;fill:none;fill-opacity:1;stroke:#000000;stroke-width:0.92916;stroke-miterlimit:4;stroke-dasharray:none;stroke-dashoffset:0"
       id="path893"
       sodipodi:type="arc"
       sodipodi:cx="45.842667"
       sodipodi:cy="64.269508"
       sodipodi:rx="2.9244447"
       sodipodi:ry="2.9244447"
       sodipodi:start="0"
       sodipodi:end="6.2813004"
       sodipodi:open="true"
       sodipodi:arc-type="arc"
       d="m 48.767111,64.269508 a 2.9244447,2.9244447 0 0 1 -2.923066,2.924445 2.9244447,2.9244447 0 0 1 -2.925822,-2.921688 2.9244447,2.9244447 0 0 1 2.920309,-2.927198 2.9244447,2.9244447 0 0 1 2.928574,2.918929" />
    <rect
       style="opacity:1;fill:#ffffff;fill-opacity:1;stroke:#000000;stroke-width:0.92916;stroke-miterlimit:4;stroke-dasharray:none;stroke-dashoffset:0"
       id="rect895"
       width="130.31981"
       height="10.16603"
       x="4.9034286"
       y="107.42525"
       ry="4.6259584"
       inkscape:transform-center-x="56.188254"
       inkscape:transform-center-y="18.969678"
       transform="rotate(-19.013344)" />
    <path
       style="opacity:1;fill:none;fill-opacity:1;stroke:#000000;stroke-width:0.92916;stroke-miterlimit:4;stroke-dasharray:none;stroke-dashoffset:0"
       id="path897"
       sodipodi:type="arc"
       sodipodi:cx="-26.860294"
       sodipodi:cy="109.81435"
       sodipodi:rx="2.9244447"
       sodipodi:ry="2.9244447"
       sodipodi:start="0"
       sodipodi:end="6.2813004"
       sodipodi:open="true"
       sodipodi:arc-type="arc"
       d="m -23.93585,109.81435 a 2.9244447,2.9244447 0 0 1 -2.923066,2.92444 2.9244447,2.9244447 0 0 1 -2.925822,-2.92169 2.9244447,2.9244447 0 0 1 2.920309,-2.9272 2.9244447,2.9244447 0 0 1 2.928574,2.91893"
       inkscape:transform-center-x="112.61409"
       inkscape:transform-center-y="38.4851"
       transform="rotate(-38.014815)" />
    <path
       style="opacity:1;fill:none;fill-opacity:1;stroke:#000000;stroke-width:0.92916;stroke-miterlimit:4;stroke-dasharray:none;stroke-dashoffset:0"
       id="path899"
       sodipodi:type="arc"
       sodipodi:cx="85.739883"
       sodipodi:cy="148.54379"
       sodipodi:rx="2.9244447"
       sodipodi:ry="2.9244447"
       sodipodi:start="0"
       sodipodi:end="6.2813004"
       sodipodi:open="true"
       sodipodi:arc-type="arc"
       d="m 88.664328,148.54379 a 2.9244447,2.9244447 0 0 1 -2.923067,2.92445 2.9244447,2.9244447 0 0 1 -2.925821,-2.92169 2.9244447,2.9244447 0 0 1 2.920309,-2.9272 2.9244447,2.9244447 0 0 1 2.928574,2.91893"
       inkscape:transform-center-x="0.049750487"
       inkscape:transform-center-y="-0.34837823"
       transform="rotate(-38.014815)" />
  </g>
  <g
     inkscape:label="7oclock"
     inkscape:groupmode="layer"
     id="g939"
     style="display:none">
    <path
       style="opacity:1;fill:none;fill-opacity:1;stroke:#000000;stroke-width:0.92916;stroke-miterlimit:4;stroke-dasharray:none;stroke-dashoffset:0"
       id="path925"
       sodipodi:type="arc"
       sodipodi:cx="45.842667"
       sodipodi:cy="64.269508"
       sodipodi:rx="44.395786"
       sodipodi:ry="44.395786"
       sodipodi:start="0"
       sodipodi:end="6.2813004"
       sodipodi:open="true"
       sodipodi:arc-type="arc"
       d="M 90.238453,64.269508 A 44.395786,44.395786 0 0 1 45.863587,108.66529 44.395786,44.395786 0 0 1 1.4469001,64.311349 44.395786,44.395786 0 0 1 45.779905,19.873766 44.395786,44.395786 0 0 1 90.238374,64.185826" />
    <path
       style="opacity:1;fill:none;fill-opacity:1;stroke:#000000;stroke-width:0.92916;stroke-miterlimit:4;stroke-dasharray:none;stroke-dashoffset:0"
       id="path927"
       sodipodi:type="arc"
       sodipodi:cx="45.842667"
       sodipodi:cy="64.269508"
       sodipodi:rx="2.9244447"
       sodipodi:ry="2.9244447"
       sodipodi:start="0"
       sodipodi:end="6.2813004"
       sodipodi:open="true"
       sodipodi:arc-type="arc"
       d="m 48.767111,64.269508 a 2.9244447,2.9244447 0 0 1 -2.923066,2.924445 2.9244447,2.9244447 0 0 1 -2.925822,-2.921688 2.9244447,2.9244447 0 0 1 2.920309,-2.927198 2.9244447,2.9244447 0 0 1 2.928574,2.918929" />
    <rect
       style="opacity:1;fill:#ffffff;fill-opacity:1;stroke:#000000;stroke-width:0.92916;stroke-miterlimit:4;stroke-dasharray:none;stroke-dashoffset:0"
       id="rect929"
       width="130.31981"
       height="10.16603"
       x="-8.864069"
       y="88.420563"
       ry="4.6259584"
       inkscape:transform-center-x="58.161299"
       inkscape:transform-center-y="13.513392"
       transform="rotate(-13.281945)" />
    <path
       style="opacity:1;fill:none;fill-opacity:1;stroke:#000000;stroke-width:0.92916;stroke-miterlimit:4;stroke-dasharray:none;stroke-dashoffset:0"
       id="path931"
       sodipodi:type="arc"
       sodipodi:cx="-33.689846"
       sodipodi:cy="87.362671"
       sodipodi:rx="2.9244447"
       sodipodi:ry="2.9244447"
       sodipodi:start="0"
       sodipodi:end="6.2813004"
       sodipodi:open="true"
       sodipodi:arc-type="arc"
       d="m -30.765401,87.362671 a 2.9244447,2.9244447 0 0 1 -2.923067,2.924444 2.9244447,2.9244447 0 0 1 -2.925821,-2.921688 2.9244447,2.9244447 0 0 1 2.920309,-2.927198 2.9244447,2.9244447 0 0 1 2.928573,2.91893"
       inkscape:transform-center-x="116.25398"
       inkscape:transform-center-y="27.296288"
       transform="rotate(-32.283416)" />
    <path
       style="opacity:1;fill:none;fill-opacity:1;stroke:#000000;stroke-width:0.92916;stroke-miterlimit:4;stroke-dasharray:none;stroke-dashoffset:0"
       id="path933"
       sodipodi:type="arc"
       sodipodi:cx="78.91053"
       sodipodi:cy="126.09201"
       sodipodi:rx="2.9244447"
       sodipodi:ry="2.9244447"
       sodipodi:start="0"
       sodipodi:end="6.2813004"
       sodipodi:open="true"
       sodipodi:arc-type="arc"
       d="m 81.834975,126.09201 a 2.9244447,2.9244447 0 0 1 -2.923067,2.92444 2.9244447,2.9244447 0 0 1 -2.925821,-2.92168 2.9244447,2.9244447 0 0 1 2.920309,-2.9272 2.9244447,2.9244447 0 0 1 2.928574,2.91893"
       inkscape:transform-center-x="0.37423295"
       inkscape:transform-center-y="-0.10183406"
       transform="rotate(-32.283416)" />
  </g>
  <g
     inkscape:label="9oclock"
     inkscape:groupmode="layer"
     id="g971"
     style="display:none">
    <path
       style="opacity:1;fill:none;fill-opacity:1;stroke:#000000;stroke-width:0.92916;stroke-miterlimit:4;stroke-dasharray:none;stroke-dashoffset:0"
       id="path957"
       sodipodi:type="arc"
       sodipodi:cx="45.842667"
       sodipodi:cy="64.269508"
       sodipodi:rx="44.395786"
       sodipodi:ry="44.395786"
       sodipodi:start="0"
       sodipodi:end="6.2813004"
       sodipodi:open="true"
       sodipodi:arc-type="arc"
       d="M 90.238453,64.269508 A 44.395786,44.395786 0 0 1 45.863587,108.66529 44.395786,44.395786 0 0 1 1.4469001,64.311349 44.395786,44.395786 0 0 1 45.779905,19.873766 44.395786,44.395786 0 0 1 90.238374,64.185826" />
    <path
       style="opacity:1;fill:none;fill-opacity:1;stroke:#000000;stroke-width:0.92916;stroke-miterlimit:4;stroke-dasharray:none;stroke-dashoffset:0"
       id="path959"
       sodipodi:type="arc"
       sodipodi:cx="45.842667"
       sodipodi:cy="64.269508"
       sodipodi:rx="2.9244447"
       sodipodi:ry="2.9244447"
       sodipodi:start="0"
       sodipodi:end="6.2813004"
       sodipodi:open="true"
       sodipodi:arc-type="arc"
       d="m 48.767111,64.269508 a 2.9244447,2.9244447 0 0 1 -2.923066,2.924445 2.9244447,2.9244447 0 0 1 -2.925822,-2.921688 2.9244447,2.9244447 0 0 1 2.920309,-2.927198 2.9244447,2.9244447 0 0 1 2.928574,2.918929" />
    <rect
       style="opacity:1;fill:#ffffff;fill-opacity:1;stroke:#000000;stroke-width:0.92916;stroke-miterlimit:4;stroke-dasharray:none;stroke-dashoffset:0"
       id="rect961"
       width="130.31981"
       height="10.16603"
       x="1.7061253"
       y="58.265217"
       ry="4.6259584"
       inkscape:transform-center-x="59.706649"
       inkscape:transform-center-y="-0.68147998"
       transform="rotate(0.45220672)" />
    <path
       style="opacity:1;fill:none;fill-opacity:1;stroke:#000000;stroke-width:0.92916;stroke-miterlimit:4;stroke-dasharray:none;stroke-dashoffset:0"
       id="path963"
       sodipodi:type="arc"
       sodipodi:cx="-13.87727"
       sodipodi:cy="62.292019"
       sodipodi:rx="2.9244447"
       sodipodi:ry="2.9244447"
       sodipodi:start="0"
       sodipodi:end="6.2813004"
       sodipodi:open="true"
       sodipodi:arc-type="arc"
       d="m -10.952825,62.292019 a 2.9244447,2.9244447 0 0 1 -2.923067,2.924444 2.9244447,2.9244447 0 0 1 -2.925821,-2.921688 2.9244447,2.9244447 0 0 1 2.920309,-2.927198 2.9244447,2.9244447 0 0 1 2.928574,2.91893"
       inkscape:transform-center-x="119.41062"
       inkscape:transform-center-y="-1.0848608"
       transform="rotate(-18.549264)" />
    <path
       style="opacity:1;fill:none;fill-opacity:1;stroke:#000000;stroke-width:0.92916;stroke-miterlimit:4;stroke-dasharray:none;stroke-dashoffset:0"
       id="path965"
       sodipodi:type="arc"
       sodipodi:cx="98.723137"
       sodipodi:cy="101.02145"
       sodipodi:rx="2.9244447"
       sodipodi:ry="2.9244447"
       sodipodi:start="0"
       sodipodi:end="6.2813004"
       sodipodi:open="true"
       sodipodi:arc-type="arc"
       d="m 101.64758,101.02145 a 2.9244447,2.9244447 0 0 1 -2.923065,2.92444 2.9244447,2.9244447 0 0 1 -2.925821,-2.92169 2.9244447,2.9244447 0 0 1 2.920309,-2.927196 2.9244447,2.9244447 0 0 1 2.928577,2.918926"
       inkscape:transform-center-x="0.33935786"
       inkscape:transform-center-y="-0.18776323"
       transform="rotate(-18.549264)" />
  </g>
  <g
     inkscape:label="10oclock"
     inkscape:groupmode="layer"
     id="g923"
     style="display:inline">
    <path
       style="opacity:1;fill:none;fill-opacity:1;stroke:#000000;stroke-width:0.92916;stroke-miterlimit:4;stroke-dasharray:none;stroke-dashoffset:0"
       id="path909"
       sodipodi:type="arc"
       sodipodi:cx="45.842667"
       sodipodi:cy="64.269508"
       sodipodi:rx="44.395786"
       sodipodi:ry="44.395786"
       sodipodi:start="0"
       sodipodi:end="6.2813004"
       sodipodi:open="true"
       sodipodi:arc-type="arc"
       d="M 90.238453,64.269508 A 44.395786,44.395786 0 0 1 45.863587,108.66529 44.395786,44.395786 0 0 1 1.4469001,64.311349 44.395786,44.395786 0 0 1 45.779905,19.873766 44.395786,44.395786 0 0 1 90.238374,64.185826" />
    <path
       style="opacity:1;fill:none;fill-opacity:1;stroke:#000000;stroke-width:0.92916;stroke-miterlimit:4;stroke-dasharray:none;stroke-dashoffset:0"
       id="path911"
       sodipodi:type="arc"
       sodipodi:cx="45.842667"
       sodipodi:cy="64.269508"
       sodipodi:rx="2.9244447"
       sodipodi:ry="2.9244447"
       sodipodi:start="0"
       sodipodi:end="6.2813004"
       sodipodi:open="true"
       sodipodi:arc-type="arc"
       d="m 48.767111,64.269508 a 2.9244447,2.9244447 0 0 1 -2.923066,2.924445 2.9244447,2.9244447 0 0 1 -2.925822,-2.921688 2.9244447,2.9244447 0 0 1 2.920309,-2.927198 2.9244447,2.9244447 0 0 1 2.928574,2.918929" />
    <rect
       style="opacity:1;fill:#ffffff;fill-opacity:1;stroke:#000000;stroke-width:0.92916;stroke-miterlimit:4;stroke-dasharray:none;stroke-dashoffset:0"
       id="rect913"
       width="130.31981"
       height="10.16603"
       x="20.536398"
       y="27.851332"
       ry="4.6259584"
       inkscape:transform-center-x="57.974663"
       inkscape:transform-center-y="-13.282677"
       transform="rotate(12.799442)" />
    <path
       style="opacity:1;fill:none;fill-opacity:1;stroke:#000000;stroke-width:0.92916;stroke-miterlimit:4;stroke-dasharray:none;stroke-dashoffset:0"
       id="path915"
       sodipodi:type="arc"
       sodipodi:cx="13.829472"
       sodipodi:cy="39.666374"
       sodipodi:rx="2.9244447"
       sodipodi:ry="2.9244447"
       sodipodi:start="0"
       sodipodi:end="6.2813004"
       sodipodi:open="true"
       sodipodi:arc-type="arc"
       d="m 16.753916,39.666374 a 2.9244447,2.9244447 0 0 1 -2.923066,2.924445 2.9244447,2.9244447 0 0 1 -2.925822,-2.921689 2.9244447,2.9244447 0 0 1 2.920309,-2.927198 2.9244447,2.9244447 0 0 1 2.928574,2.91893"
       inkscape:transform-center-x="116.2114"
       inkscape:transform-center-y="-26.443573"
       transform="rotate(-6.2020286)" />
    <path
       style="opacity:1;fill:none;fill-opacity:1;stroke:#000000;stroke-width:0.92916;stroke-miterlimit:4;stroke-dasharray:none;stroke-dashoffset:0"
       id="path917"
       sodipodi:type="arc"
       sodipodi:cx="126.42983"
       sodipodi:cy="78.395805"
       sodipodi:rx="2.9244447"
       sodipodi:ry="2.9244447"
       sodipodi:start="0"
       sodipodi:end="6.2813004"
       sodipodi:open="true"
       sodipodi:arc-type="arc"
       d="m 129.35428,78.395805 a 2.9244447,2.9244447 0 0 1 -2.92307,2.924445 2.9244447,2.9244447 0 0 1 -2.92582,-2.921688 2.9244447,2.9244447 0 0 1 2.92031,-2.927198 2.9244447,2.9244447 0 0 1 2.92857,2.918929"
       inkscape:transform-center-x="0.086132228"
       inkscape:transform-center-y="-0.10553091"
       transform="rotate(-6.2020286)" />
  </g>
  <g
     inkscape:label="12oclock"
     inkscape:groupmode="layer"
     id="g955"
     style="display:none">
    <path
       style="opacity:1;fill:none;fill-opacity:1;stroke:#000000;stroke-width:0.92916;stroke-miterlimit:4;stroke-dasharray:none;stroke-dashoffset:0"
       id="path941"
       sodipodi:type="arc"
       sodipodi:cx="45.842667"
       sodipodi:cy="64.269508"
       sodipodi:rx="44.395786"
       sodipodi:ry="44.395786"
       sodipodi:start="0"
       sodipodi:end="6.2813004"
       sodipodi:open="true"
       sodipodi:arc-type="arc"
       d="M 90.238453,64.269508 A 44.395786,44.395786 0 0 1 45.863587,108.66529 44.395786,44.395786 0 0 1 1.4469001,64.311349 44.395786,44.395786 0 0 1 45.779905,19.873766 44.395786,44.395786 0 0 1 90.238374,64.185826" />
    <path
       style="opacity:1;fill:none;fill-opacity:1;stroke:#000000;stroke-width:0.92916;stroke-miterlimit:4;stroke-dasharray:none;stroke-dashoffset:0"
       id="path943"
       sodipodi:type="arc"
       sodipodi:cx="45.842667"
       sodipodi:cy="64.269508"
       sodipodi:rx="2.9244447"
       sodipodi:ry="2.9244447"
       sodipodi:start="0"
       sodipodi:end="6.2813004"
       sodipodi:open="true"
       sodipodi:arc-type="arc"
       d="m 48.767111,64.269508 a 2.9244447,2.9244447 0 0 1 -2.923066,2.924445 2.9244447,2.9244447 0 0 1 -2.925822,-2.921688 2.9244447,2.9244447 0 0 1 2.920309,-2.927198 2.9244447,2.9244447 0 0 1 2.928574,2.918929" />
    <rect
       style="opacity:1;fill:#ffffff;fill-opacity:1;stroke:#000000;stroke-width:0.92916;stroke-miterlimit:4;stroke-dasharray:none;stroke-dashoffset:0"
       id="rect945"
       width="130.31981"
       height="10.16603"
       x="46.976833"
       y="3.8059955"
       ry="4.6259584"
       inkscape:transform-center-x="-56.551464"
       inkscape:transform-center-y="19.059273"
       transform="rotate(19.001471)" />
    <path
       style="opacity:1;fill:none;fill-opacity:1;stroke:#000000;stroke-width:0.92916;stroke-miterlimit:4;stroke-dasharray:none;stroke-dashoffset:0"
       id="path947"
       sodipodi:type="arc"
       sodipodi:cx="46.658184"
       sodipodi:cy="25.540073"
       sodipodi:rx="2.9244447"
       sodipodi:ry="2.9244447"
       sodipodi:start="0"
       sodipodi:end="6.2813004"
       sodipodi:open="true"
       sodipodi:arc-type="arc"
       d="m 49.582629,25.540073 a 2.9244447,2.9244447 0 0 1 -2.923067,2.924445 2.9244447,2.9244447 0 0 1 -2.925821,-2.921688 2.9244447,2.9244447 0 0 1 2.920309,-2.927198 2.9244447,2.9244447 0 0 1 2.928574,2.918929" />
    <path
       style="opacity:1;fill:none;fill-opacity:1;stroke:#000000;stroke-width:0.92916;stroke-miterlimit:4;stroke-dasharray:none;stroke-dashoffset:0"
       id="path949"
       sodipodi:type="arc"
       sodipodi:cx="159.25836"
       sodipodi:cy="64.269508"
       sodipodi:rx="2.9244447"
       sodipodi:ry="2.9244447"
       sodipodi:start="0"
       sodipodi:end="6.2813004"
       sodipodi:open="true"
       sodipodi:arc-type="arc"
       d="m 162.18281,64.269508 a 2.9244447,2.9244447 0 0 1 -2.92307,2.924445 2.9244447,2.9244447 0 0 1 -2.92582,-2.921688 2.9244447,2.9244447 0 0 1 2.92031,-2.927198 2.9244447,2.9244447 0 0 1 2.92857,2.918929" />
    <text
       xml:space="preserve"
       style="font-style:normal;font-weight:normal;font-size:18.5832px;line-height:1.25;font-family:sans-serif;fill:#000000;fill-opacity:1;stroke:none;stroke-width:0.46458"
       x="104.46304"
       y="35.472088"
       id="text953"><tspan
         sodipodi:role="line"
         id="tspan951"
         x="104.46304"
         y="35.472088"
         style="stroke-width:0.46458">L</tspan></text>
  </g>
  <g
     inkscape:groupmode="layer"
     id="layer2"
     inkscape:label="vectors"
     style="display:inline">
    <path
       style="fill:none;stroke:#000000;stroke-width:1.39374;stroke-linecap:butt;stroke-linejoin:miter;stroke-miterlimit:4;stroke-dasharray:none;stroke-opacity:1;marker-start:url(#marker1376);marker-end:url(#Arrow2Mend)"
       d="m 20.368657,41.962916 25.545125,22.384285 83.166868,0.737944"
       id="path1338"
       sodipodi:nodetypes="ccc" />
    <path
       style="fill:none;stroke:#000000;stroke-width:1.39374;stroke-linecap:butt;stroke-linejoin:miter;stroke-miterlimit:4;stroke-dasharray:none;stroke-opacity:1;marker-start:url(#Arrow2Mstart)"
       d="M 23.08285,38.389734 131.086,63.954017"
       id="path1340"
       sodipodi:nodetypes="cc" />
    <text
       xml:space="preserve"
       style="font-style:normal;font-weight:normal;font-size:18.5832px;line-height:1.25;font-family:sans-serif;fill:#000000;fill-opacity:1;stroke:none;stroke-width:0.46458"
       x="19.893608"
       y="63.975929"
       id="text1490"><tspan
         sodipodi:role="line"
         id="tspan1488"
         x="19.893608"
         y="63.975929"
         style="stroke-width:0.46458"><tspan
           style="font-weight:bold"
           id="tspan1494">r</tspan><tspan
           style="font-size:65%;baseline-shift:sub"
           id="tspan1492">2</tspan></tspan></text>
    <text
       xml:space="preserve"
       style="font-style:normal;font-weight:normal;font-size:18.5832px;line-height:1.25;font-family:sans-serif;fill:#000000;fill-opacity:1;stroke:none;stroke-width:0.46458"
       x="101.7085"
       y="79.948105"
       id="text1490-5"><tspan
         sodipodi:role="line"
         id="tspan1488-3"
         x="101.7085"
         y="79.948105"
         style="stroke-width:0.46458"><tspan
           style="font-weight:bold;stroke-width:0.46458"
           id="tspan1494-5">r</tspan><tspan
           style="font-size:12.0791px;baseline-shift:sub;stroke-width:0.46458"
           id="tspan1492-6">3</tspan></tspan></text>
    <text
       xml:space="preserve"
       style="font-style:normal;font-weight:normal;font-size:18.5832px;line-height:1.25;font-family:sans-serif;display:inline;fill:#000000;fill-opacity:1;stroke:none;stroke-width:0.46458"
       x="97.70623"
       y="46.59956"
       id="text1490-5-2"><tspan
         sodipodi:role="line"
         id="tspan1488-3-9"
         x="97.70623"
         y="46.59956"
         style="stroke-width:0.46458"><tspan
           style="font-weight:bold;stroke-width:0.46458"
           id="tspan1494-5-1">r</tspan><tspan
           style="font-size:12.0791px;baseline-shift:sub;stroke-width:0.46458"
           id="tspan1492-6-2">2/3</tspan></tspan></text>
    <path
       style="fill:none;stroke:#000000;stroke-width:0.46458px;stroke-linecap:butt;stroke-linejoin:miter;stroke-opacity:1"
       d="M 45.888799,0.88543926 V 58.94637"
       id="path1562" />
    <path
       style="fill:none;stroke:#000000;stroke-width:0.46458px;stroke-linecap:butt;stroke-linejoin:miter;stroke-opacity:1"
       d="M 11.904408,27.820614 C 18.263627,15.185036 32.736469,10.855786 45.600735,12.695163"
       id="path1564"
       sodipodi:nodetypes="cc" />
    <text
       xml:space="preserve"
       style="font-style:normal;font-weight:normal;font-size:18.5832px;line-height:1.25;font-family:sans-serif;fill:#000000;fill-opacity:1;stroke:none;stroke-width:0.46458"
       x="12.840933"
       y="15.924478"
       id="text1568"><tspan
         sodipodi:role="line"
         id="tspan1566"
         x="12.840933"
         y="15.924478"
         style="stroke-width:0.46458">θ</tspan></text>
    <path
       style="fill:none;stroke:#000000;stroke-width:0.46458px;stroke-linecap:butt;stroke-linejoin:miter;stroke-opacity:1"
       d="m 76.48045,51.222092 c -2.916018,3.274179 -4.446652,7.430404 -2.407735,13.859289"
       id="path1570"
       sodipodi:nodetypes="cc" />
    <text
       xml:space="preserve"
       style="font-style:normal;font-weight:normal;font-size:18.5832px;line-height:1.25;font-family:sans-serif;display:inline;fill:#000000;fill-opacity:1;stroke:none;stroke-width:0.46458"
       x="49.248463"
       y="86.933113"
       id="text1568-7"><tspan
         sodipodi:role="line"
         id="tspan1566-0"
         x="49.248463"
         y="86.933113"
         style="stroke-width:0.46458"
         rotate="0 0 0">θ<tspan
   style="font-size:65%;baseline-shift:sub"
   id="tspan1608">L</tspan></tspan></text>
    <path
       style="fill:none;stroke:#000000;stroke-width:0.46458px;stroke-linecap:butt;stroke-linejoin:miter;stroke-opacity:1;marker-end:url(#marker1614)"
       d="M 66.768992,80.078108 C 78.941245,77.231746 81.835194,68.193597 76.011321,59.621979"
       id="path1610"
       sodipodi:nodetypes="cc" />
  </g>
</svg>
